<svg xmlns="http://www.w3.org/2000/svg" viewBox="0 0 103.061 67.232">
  <defs>
    <style>
      .a, .b, .c, .d, .e {
        fill: none;
        stroke-linecap: round;
      }

      .a {
        stroke: #00a26a;
      }

      .a, .c, .d {
        stroke-linejoin: round;
      }

      .a, .b, .d {
        stroke-width: 3.5px;
      }

      .b, .c, .d, .e {
        stroke: #727272;
      }

      .b, .e {
        stroke-miterlimit: 10;
      }

      .c, .e {
        stroke-width: 2.5px;
      }
    </style>
  </defs>
  <g>
    <rect class="a" x="48.971" y="15.124" width="6.762" height="27.491"/>
    <polyline class="a" points="35.729 19.016 42.49 19.016 42.49 35.452"/>
    <g>
      <path class="b" d="M60.669,33.251a2.866,2.866,0,0,1,3.175-2.743c-1.636-8,3.124-14.986,13.24-14.986,9.1,0,15.387,5.381,13.24,14.986A2.866,2.866,0,0,1,93.5,33.251a4.3,4.3,0,0,1-4,5.257c-1.484,6.117-5.133,11-12.41,11-6.777,0-10.639-4.881-12.287-10.991C62.536,38.428,60.155,36.759,60.669,33.251Z"/>
      <path class="c" d="M90.381,30.827s-15.141,3.111-19.342-7.26c0,0-1.244,10.06-6.853,7.181"/>
      <path class="b" d="M89.741,51.642a83.235,83.235,0,0,1,7.964,3.62c3.882,2.03,3.6,8.12,3.6,8.12"/>
      <path class="d" d="M64.427,52.642A26.648,26.648,0,0,1,52.235,50.7c-5.992-2.341-13.688-10.475-13.688-10.475L32.7,47.051s9.261,13.895,25.58,17.169"/>
      <g>
        <path class="e" d="M28.145,30.737l-6.712-8.06a1.671,1.671,0,0,1,.109-2.23,1.625,1.625,0,0,1,2.4.168L31.772,30.1a.309.309,0,0,0,.551-.215l.733-2.5c.605-1.727,1.6-2.665,2.8-2.685a2.688,2.688,0,0,1,2.366,3.573c-.626,1.95-1.979,5.253-2.024,7.622A8.365,8.365,0,0,0,38.141,40.7"/>
        <path class="e" d="M21.39,22.623a1.623,1.623,0,1,0-2.552,2.007l6.754,8.114"/>
        <path class="e" d="M19.581,25.563a1.624,1.624,0,1,0-2.553,2.007l6.012,7.182"/>
        <path class="e" d="M23.04,34.752c-1.238-.627-4.106-2.671-5.54-2.083-.993.407-1.4,1.986.652,3.128,2.436,1.356,3.788,3.212,5.9,4.982,3.608,3.014,6.231,1.358,9.077,4.929"/>
      </g>
    </g>
    <polyline class="a" points="77.084 55.242 71.723 59.278 74.574 63.253 73.908 65.482"/>
    <polyline class="a" points="77.084 55.242 82.445 59.278 79.594 63.253 80.26 65.482"/>
    <path class="b" d="M39.109,54.1H6.885A5.135,5.135,0,0,1,1.75,48.96V6.885A5.135,5.135,0,0,1,6.885,1.75H72.553a5.135,5.135,0,0,1,5.135,5.135V15.4"/>
  </g>
</svg>
