<svg id="レイヤー_1" data-name="レイヤー 1" xmlns="http://www.w3.org/2000/svg" viewBox="0 0 104.949 17.186">
  <defs>
    <style>
      .cls-1 {
        fill: #0058a1;
      }

      .cls-2 {
        fill: #e6222e;
      }

      .cls-3 {
        fill: #7d7d7d;
      }
    </style>
  </defs>
  <g>
    <path class="cls-1" d="M4.514,9.531c-.15.819.271,1.085,1,1.085.518,0,1.095-.2,1.21-.711.144-.618-.771-.735-1.66-1.019S3.305,8.154,3.6,6.872A3.076,3.076,0,0,1,6.761,4.751c1.309,0,2.474.673,2.126,2.249H7.177c.168-.635-.349-.844-.871-.844a.909.909,0,0,0-.965.6c-.123.538.807.635,1.7.918S8.777,8.425,8.5,9.685a3.153,3.153,0,0,1-3.4,2.336c-1.511,0-2.694-.7-2.3-2.49H4.514"/>
    <polygon class="cls-1" points="16.389 4.897 18.105 4.897 16.523 11.874 14.807 11.874 16.389 4.897"/>
    <path class="cls-1" d="M10.137,4.9h3.08c1.138-.02,2.318.294,1.987,1.75a2.129,2.129,0,0,1-1.19,1.408,1.284,1.284,0,0,1,.759,1.65,2.758,2.758,0,0,1-3.056,2.169H8.554L10.137,4.9m1.09,2.746h1.331A.845.845,0,0,0,13.4,6.98c.12-.51-.179-.675-.541-.675H11.531l-.3,1.338M10.6,10.419h1.372a.99.99,0,0,0,1.1-.781c.14-.616-.22-.822-.739-.822H10.963l-.359,1.6"/>
    <path class="cls-2" d="M20.5,2.1c-.952-2.52-6.38-2.806-12.123-.644C4.281,3,1.133,5.371,0,7.522A19.631,19.631,0,0,1,7.12,3.146c5.745-2.164,11.168-1.877,12.122.642a2.943,2.943,0,0,1-.309,2.418C20.326,4.753,20.949,3.282,20.5,2.1"/>
    <path class="cls-3" d="M4.421,15.91l.072-.366H5.81L5.584,16.7a2.933,2.933,0,0,1-.7.363,2,2,0,0,1-.688.122,1.547,1.547,0,0,1-.787-.2.965.965,0,0,1-.455-.57,1.613,1.613,0,0,1-.03-.831,2.364,2.364,0,0,1,.355-.846,1.679,1.679,0,0,1,.654-.584,1.916,1.916,0,0,1,.862-.191,1.43,1.43,0,0,1,.589.11.734.734,0,0,1,.369.3,1.133,1.133,0,0,1,.136.512l-.392.1a1.037,1.037,0,0,0-.1-.373.552.552,0,0,0-.254-.218.984.984,0,0,0-.414-.085,1.406,1.406,0,0,0-.5.088,1.133,1.133,0,0,0-.379.229L3.6,14.94a1.937,1.937,0,0,0-.241.629,1.4,1.4,0,0,0,.007.695.694.694,0,0,0,.337.422,1.109,1.109,0,0,0,.546.132,1.563,1.563,0,0,0,.542-.1,1.576,1.576,0,0,0,.43-.224l.115-.583H4.421"/>
    <path class="cls-3" d="M6.117,17.133l.6-3.115H8.1a1.663,1.663,0,0,1,.616.086A.521.521,0,0,1,9,14.4a.787.787,0,0,1,.041.467,1.009,1.009,0,0,1-.323.561A1.346,1.346,0,0,1,8,15.714l.217.154a1.628,1.628,0,0,1,.263.416l.369.849h-.51l-.284-.648a3.961,3.961,0,0,0-.216-.432l-.17-.208L7.5,15.764l-.226-.016H6.8l-.267,1.385H6.117m.749-1.741h.889a1.45,1.45,0,0,0,.45-.058.621.621,0,0,0,.279-.188l.133-.28a.41.41,0,0,0-.089-.36.625.625,0,0,0-.474-.141H7.067l-.2,1.027"/>
    <path class="cls-3" d="M9.246,15.618a2.067,2.067,0,0,1,.65-1.212,1.709,1.709,0,0,1,1.161-.439,1.311,1.311,0,0,1,.739.206,1.016,1.016,0,0,1,.412.573,1.68,1.68,0,0,1,.02.836,2.15,2.15,0,0,1-.352.846,1.765,1.765,0,0,1-1.447.758,1.253,1.253,0,0,1-.744-.214,1.032,1.032,0,0,1-.412-.577,1.587,1.587,0,0,1-.027-.777m.424,0a1.11,1.11,0,0,0,.128.887.825.825,0,0,0,.7.323,1.2,1.2,0,0,0,.824-.325,1.806,1.806,0,0,0,.483-1.593.744.744,0,0,0-.292-.439.876.876,0,0,0-.525-.159,1.258,1.258,0,0,0-.806.3,1.612,1.612,0,0,0-.513,1"/>
    <path class="cls-3" d="M15.017,14.018h.415l-.35,1.8a2.692,2.692,0,0,1-.253.746,1.219,1.219,0,0,1-.473.448,1.535,1.535,0,0,1-.761.173,1.317,1.317,0,0,1-.683-.151A.653.653,0,0,1,12.6,16.6a2.094,2.094,0,0,1,.032-.781l.354-1.8h.408l-.343,1.8a1.885,1.885,0,0,0-.046.6.452.452,0,0,0,.2.3.805.805,0,0,0,.427.1,1.023,1.023,0,0,0,.687-.2,1.467,1.467,0,0,0,.35-.794l.349-1.8"/>
    <path class="cls-3" d="M15.341,17.133l.6-3.115h1.176a2.509,2.509,0,0,1,.47.032.833.833,0,0,1,.359.146.579.579,0,0,1,.184.3.946.946,0,0,1,.015.426,1.169,1.169,0,0,1-.383.67,1.41,1.41,0,0,1-.967.276h-.8l-.244,1.266h-.409m.723-1.63h.807a.949.949,0,0,0,.594-.151.664.664,0,0,0,.252-.419.5.5,0,0,0-.035-.335l-.224-.188a1.966,1.966,0,0,0-.379-.023h-.8L16.064,15.5"/>
    <path class="cls-1" d="M28.392,11.674c.017,1.412.078,4.087,3.216,4.087a2.486,2.486,0,0,0,2.78-2.469c0-1.949-1.928-2.736-3.635-3.421-3.858-1.536-5.333-2.7-5.333-5.31,0-4.024,3.8-4.545,5.853-4.545A8.445,8.445,0,0,1,34.658.66a4.642,4.642,0,0,1,2.754,4.232H34.077C34.034,3.73,33.995,1.409,31,1.409a2.189,2.189,0,0,0-2.488,2.342c0,1.578.727,1.887,4.523,3.525,2.266.976,4.668,2.056,4.668,5.186,0,4.17-3.942,4.689-6.059,4.689a9.538,9.538,0,0,1-3.568-.623c-2.618-1.12-2.883-3.566-3.029-4.854h3.343"/>
    <path class="cls-1" d="M41.605,17.15V.017H49.92c2.812,0,4.905,1.225,4.905,4.134,0,3.078-2.221,3.6-3.54,3.917,1.467.322,4.023.86,4.023,4.369,0,2.971-1.842,4.713-5.388,4.713H41.605m3.243-9.621h3.879c2.118,0,2.687-1.484,2.687-3.141,0-1.83-.737-2.971-2.6-2.971H44.848V7.529m0,1.4v6.843h4.2c2.241,0,2.866-1.568,2.866-3.462,0-2.411-1.19-3.381-2.929-3.381H44.848"/>
    <rect class="cls-1" x="60.212" y="0.016" width="2.849" height="17.134"/>
    <path class="cls-1" d="M75.167,3.783h-7.1V2.727h7.1Zm-.733-2.7H68.485V.021h5.949Zm0,5.465H68.485V5.469h5.949Zm0,2.666H68.485V8.137h5.949Zm0,1.668v5.545H70.753v.748H68.486V10.879h5.948m-3.681,4.49h1.61V11.934h-1.61Zm15.149.209v1.077H74.935V15.578h1.226V6.527c0-.711-.019-1.018-.057-1.479l2.414.04.116.211a1.07,1.07,0,0,1-.078.324v9.955H79.77V1.08H75.506V.021H85.519V1.08h-3.1V7.293h2.779V8.347H82.415v7.231H85.9"/>
    <path class="cls-1" d="M104.291,12.26a18.72,18.72,0,0,1-3.166-1.745c-.019,1.381-.184,4.945-.932,5.852a3.051,3.051,0,0,1-2.461.675H95.459l-.335-1.182a7.97,7.97,0,0,0,1.648.18c.594,0,1.072-.036,1.324-.707a22.1,22.1,0,0,0,.493-3.966h-2.5c-.529,4.327-3.846,5.42-6.485,5.819l-.549-.892c1.62-.471,4.191-1.308,4.484-4.927H91.118v-.889a19.321,19.321,0,0,1-3.08,1.744l-.684-.888A14.523,14.523,0,0,0,91.245,8.39H87.693v-1h4.432A10.983,10.983,0,0,0,93.6,4.808H88.587V3.79h2.569A18.8,18.8,0,0,0,89.535.72l1-.618a18.707,18.707,0,0,1,3.009,2.309L91.393,3.79h2.589A10.668,10.668,0,0,0,94.617.029l2.66.344L97.423.5a1,1,0,0,1-.146.346,18.835,18.835,0,0,1-.8,2.942H103.8V4.808H98.826a9.61,9.61,0,0,0,1.293,2.58h4.538v1h-3.749a12.524,12.524,0,0,0,4.041,2.963l-.658.907M93.6,8.39a15.489,15.489,0,0,1-2.321,1.981h9.627A15.546,15.546,0,0,1,98.589,8.39H93.6m4.13-1A9.227,9.227,0,0,1,96.3,4.808h-.254a13.556,13.556,0,0,1-1.565,2.58h3.256m5.048-6.249.038.07c0,.091-.071.146-.332.312a22.726,22.726,0,0,1-2.714,2.234L98.68,3.116A9.294,9.294,0,0,0,100.1.029l2.678,1.11"/>
  </g>
</svg>
