<svg xmlns="http://www.w3.org/2000/svg" viewBox="0 0 55.382 70.64">
  <defs>
    <style>
      .a, .b, .c, .d {
        fill: none;
        stroke-linecap: round;
      }

      .a, .b, .c {
        stroke: #727272;
      }

      .a, .b, .d {
        stroke-linejoin: round;
      }

      .a, .c, .d {
        stroke-width: 3.5px;
      }

      .b {
        stroke-width: 2.5px;
      }

      .c {
        stroke-miterlimit: 10;
      }

      .d {
        stroke: #00a26a;
      }
    </style>
  </defs>
  <g>
    <g>
      <path class="a" d="M44.836,19.519a2.982,2.982,0,0,0-3.331-2.75C41.331,7.863,38.227,1.75,27.613,1.75c-9.552,0-13.719,6.113-13.892,15.019a2.983,2.983,0,0,0-3.332,2.75,4.358,4.358,0,0,0,4.2,5.268c1.558,6.13,5.386,11.029,13.022,11.029,7.11,0,11.163-4.892,12.892-11.015A4.331,4.331,0,0,0,44.836,19.519Z"/>
      <path class="b" d="M13.862,14.478S21.518,13.1,24.629,8.721c0,0,7.94,8.605,16.876,8.048"/>
      <path class="c" d="M11.972,40.858a52.558,52.558,0,0,1-6,2.212C1.622,44.478,1.75,56.9,1.75,56.9v6.427c0,4.067,2.582,5.566,4.722,5.566H13.11"/>
      <path class="c" d="M41.312,40.249S44.9,41.661,49.25,43.07s4.478,6.281,4.355,9.237,0,16.583,0,16.583"/>
    </g>
    <path class="a" d="M29.91,68.89h6.742c1.713,0,4.888-1.857,4.888-4.888s-2.932-5-6.478-5"/>
    <polyline class="d" points="12.69 59.481 36.974 38.61 41.312 40.249 29.91 68.89 13.11 68.89 11.972 40.858 17.174 38.61 21.983 51.494"/>
  </g>
</svg>
