<?xml version="1.0" encoding="utf-8"?>
<!-- Generator: Adobe Illustrator 24.3.0, SVG Export Plug-In . SVG Version: 6.00 Build 0)  -->
<svg version="1.1" id="レイヤー_1" xmlns="http://www.w3.org/2000/svg" xmlns:xlink="http://www.w3.org/1999/xlink" x="0px"
	 y="0px" viewBox="0 0 110.4 62.2" style="enable-background:new 0 0 110.4 62.2;" xml:space="preserve">
<style type="text/css">
	.st0{fill:none;stroke:#727272;stroke-width:3.5;stroke-linecap:round;stroke-linejoin:round;}
	.st1{fill:#00A26A;}
	.st2{fill:#727272;}
	.st3{fill:none;stroke:#727272;stroke-width:2.5;stroke-linecap:round;stroke-linejoin:round;}
	.st4{fill:none;stroke:#727272;stroke-width:3.5;stroke-linecap:round;stroke-miterlimit:10;}
</style>
<g>
	<g>
		<path class="st0" d="M47.3,13.8c1.1-1.2,2.7-1.9,4.4-1.9h51c3.3,0,6,2.7,6,6v36.6c0,3.3-2.7,6-6,6h-51c-3.3,0-6-2.7-6-6V42.5"/>
		<g>
			<circle class="st1" cx="100.5" cy="26.7" r="2.1"/>
			<circle class="st2" cx="85" cy="26.7" r="2.1"/>
			<circle class="st2" cx="92.8" cy="26.7" r="2.1"/>
		</g>
		<g>
			<circle class="st1" cx="53.9" cy="33.2" r="2.1"/>
			<circle class="st2" cx="61.7" cy="33.2" r="2.1"/>
			<circle class="st2" cx="69.5" cy="33.2" r="2.1"/>
			<circle class="st2" cx="77.2" cy="33.2" r="2.1"/>
			<circle class="st1" cx="100.5" cy="33.2" r="2.1"/>
			<circle class="st2" cx="85" cy="33.2" r="2.1"/>
			<circle class="st2" cx="92.8" cy="33.2" r="2.1"/>
		</g>
		<g>
			<circle class="st1" cx="53.9" cy="39.8" r="2.1"/>
			<circle class="st2" cx="61.7" cy="39.8" r="2.1"/>
			<circle class="st2" cx="69.5" cy="39.8" r="2.1"/>
			<circle class="st2" cx="77.2" cy="39.8" r="2.1"/>
			<circle class="st1" cx="100.5" cy="39.8" r="2.1"/>
			<circle class="st2" cx="85" cy="39.8" r="2.1"/>
			<circle class="st2" cx="92.8" cy="39.8" r="2.1"/>
		</g>
		<g>
			<circle class="st1" cx="53.9" cy="46.3" r="2.1"/>
			<circle class="st2" cx="61.7" cy="46.3" r="2.1"/>
			<circle class="st2" cx="69.5" cy="46.3" r="2.1"/>
			<circle class="st2" cx="77.2" cy="46.3" r="2.1"/>
			<circle class="st1" cx="100.5" cy="46.3" r="2.1"/>
			<circle class="st2" cx="85" cy="46.3" r="2.1"/>
			<circle class="st2" cx="92.8" cy="46.3" r="2.1"/>
		</g>
		<g>
			<circle class="st1" cx="53.9" cy="52.9" r="2.1"/>
			<circle class="st2" cx="61.7" cy="52.9" r="2.1"/>
			<circle class="st2" cx="69.5" cy="52.9" r="2.1"/>
			<circle class="st2" cx="77.2" cy="52.9" r="2.1"/>
			<circle class="st2" cx="85" cy="52.9" r="2.1"/>
			<circle class="st2" cx="92.8" cy="52.9" r="2.1"/>
		</g>
		<line class="st3" x1="49.5" y1="20.1" x2="108.6" y2="20.1"/>
		<g>
			<line class="st0" x1="57.7" y1="15.7" x2="57.7" y2="7.9"/>
			<line class="st0" x1="96.6" y1="15.7" x2="96.6" y2="7.9"/>
		</g>
	</g>
	<path class="st4" d="M25.8,1.8c13.3,0,24,9.7,24,21.6c0,4.1-1.3,8-3.6,11.4c-0.4,0.6-0.4,1.4-0.1,2l3,5.3c0.2,0.3,0.1,0.7-0.2,0.9
		C48.8,43,48.6,43,48.5,43l-8.9-1.4c-0.4-0.1-0.9,0-1.2,0.2c-3.9,2.1-8.2,3.3-12.6,3.2c-13.3,0-24-9.7-24-21.6S12.5,1.8,25.8,1.8z"
		/>
	<g>
		<path class="st1" d="M12.4,20.2c0-0.7,0.6-1.3,1.3-1.3c0.3,0,0.5,0.1,0.7,0.2c0.8,0.5,1.7,0.8,2.7,0.8c1,0,1.6-0.4,1.6-1
			c0-0.6-0.7-0.9-1.9-1.1c-1.8-0.4-4.4-0.8-4.4-3.5c0-1.9,1.6-3.5,4.6-3.5c1.2,0,2.4,0.3,3.5,0.8c0.4,0.2,0.7,0.7,0.7,1.2
			c0,0.7-0.6,1.3-1.3,1.3c-0.2,0-0.4-0.1-0.6-0.2c-0.9-0.4-1.7-0.7-2.4-0.7c-1.1,0-1.5,0.4-1.5,0.9c0,0.6,0.7,0.8,1.9,1
			c1.8,0.4,4.4,0.9,4.4,3.4c0,2.2-1.7,3.7-4.6,3.7c-1.6,0-2.9-0.4-3.9-1C12.6,21.1,12.4,20.7,12.4,20.2z"/>
		<path class="st1" d="M31.2,15.2V21c0,0.7-0.6,1.3-1.3,1.3c-0.7,0-1.2-0.5-1.3-1.1c-0.5,0.6-1.4,1.1-2.8,1.1c-1.8,0-2.7-1-2.7-2.5
			v-4.6c0-0.7,0.6-1.3,1.3-1.3c0.7,0,1.3,0.6,1.3,1.3v3.6c0,1,0.5,1.3,1.3,1.3c0.7,0,1.2-0.4,1.5-0.8v-4.1c0-0.7,0.6-1.3,1.3-1.3
			C30.6,13.9,31.2,14.5,31.2,15.2z"/>
		<path class="st1" d="M41.1,16.4V21c0,0.7-0.6,1.3-1.3,1.3c-0.7,0-1.3-0.6-1.3-1.3v-3.5c0-1-0.5-1.3-1.3-1.3
			c-0.8,0-1.3,0.4-1.6,0.8V21c0,0.7-0.6,1.3-1.3,1.3c-0.7,0-1.3-0.6-1.3-1.3v-5.8c0-0.7,0.6-1.3,1.3-1.3c0.7,0,1.2,0.5,1.3,1.2
			c0.5-0.6,1.4-1.2,2.8-1.2C40.3,13.9,41.1,14.9,41.1,16.4z"/>
	</g>
	<g>
		<path class="st1" d="M12.7,34.1c0-0.7,0.6-1.3,1.3-1.3c0.3,0,0.5,0.1,0.7,0.2c0.8,0.5,1.7,0.8,2.7,0.8c1,0,1.6-0.4,1.6-1
			c0-0.6-0.7-0.9-1.9-1.1c-1.8-0.4-4.4-0.8-4.4-3.5c0-1.9,1.6-3.5,4.6-3.5c1.2,0,2.4,0.3,3.5,0.8c0.4,0.2,0.7,0.7,0.7,1.2
			c0,0.7-0.6,1.3-1.3,1.3c-0.2,0-0.4-0.1-0.6-0.2c-0.9-0.4-1.7-0.7-2.4-0.7c-1.1,0-1.5,0.4-1.5,0.9c0,0.6,0.7,0.8,1.9,1
			c1.8,0.4,4.4,0.9,4.4,3.4c0,2.2-1.7,3.7-4.6,3.7c-1.6,0-2.9-0.4-3.9-1C12.9,35,12.7,34.6,12.7,34.1z"/>
		<path class="st1" d="M31.5,31v3.8c0,0.7-0.6,1.4-1.3,1.4c-0.6,0-1.1-0.4-1.3-1c-0.5,0.6-1.5,1-2.5,1c-1.2,0-2.8-0.8-2.8-2.7
			c0-2,1.5-2.5,2.8-2.5c1.1,0,2,0.3,2.5,0.9v-1c0-0.7-0.6-1.2-1.6-1.2c-0.6,0-1.1,0.1-1.7,0.4c-0.1,0.1-0.3,0.1-0.4,0.1
			c-0.5,0-1-0.4-1-1c0-0.4,0.2-0.7,0.5-0.8c1-0.6,2-0.8,3-0.8C29.6,27.8,31.5,28.5,31.5,31z M28.9,34v-0.7c-0.3-0.4-0.9-0.6-1.4-0.6
			c-0.7,0-1.3,0.3-1.3,0.9s0.6,0.9,1.3,0.9C28,34.6,28.6,34.4,28.9,34z"/>
		<path class="st1" d="M38.9,35.1c0,0.5-0.4,0.9-0.8,1c-0.3,0.1-0.7,0.1-1.1,0.1c-1.6,0-2.5-0.8-2.5-2.4v-3.7h-0.4
			c-0.6,0-1.1-0.5-1.1-1.1c0-0.6,0.5-1.1,1.1-1.1h0.4v-1.1c0-0.7,0.6-1.3,1.3-1.3c0.7,0,1.3,0.6,1.3,1.3V28h0.7
			c0.6,0,1.1,0.5,1.1,1.1c0,0.6-0.5,1.1-1.1,1.1h-0.7v2.9c0,0.5,0.2,0.8,0.7,0.8H38C38.5,34,38.9,34.5,38.9,35.1z"/>
	</g>
</g>
<g>
</g>
<g>
</g>
<g>
</g>
<g>
</g>
<g>
</g>
<g>
</g>
<g>
</g>
<g>
</g>
<g>
</g>
<g>
</g>
<g>
</g>
<g>
</g>
<g>
</g>
<g>
</g>
<g>
</g>
</svg>
