<?xml version="1.0" encoding="utf-8"?>
<!-- Generator: Adobe Illustrator 24.3.0, SVG Export Plug-In . SVG Version: 6.00 Build 0)  -->
<svg version="1.1" id="レイヤー_1" xmlns="http://www.w3.org/2000/svg" xmlns:xlink="http://www.w3.org/1999/xlink" x="0px"
	 y="0px" viewBox="0 0 67.8 59.8" style="enable-background:new 0 0 67.8 59.8;" xml:space="preserve">
<style type="text/css">
	.st0{fill:none;stroke:#00A26A;stroke-width:3.5;stroke-linecap:round;stroke-miterlimit:10;}
	.st1{fill:none;stroke:#727272;stroke-width:2.5;stroke-linecap:round;stroke-linejoin:round;stroke-miterlimit:10;}
	.st2{fill:none;stroke:#727272;stroke-width:3.5;stroke-linecap:round;stroke-linejoin:round;stroke-miterlimit:10;}
	.st3{fill:none;stroke:#00A26A;stroke-width:2.5;stroke-linecap:round;stroke-linejoin:round;stroke-miterlimit:10;}
</style>
<path class="st0" d="M1.8,58v-3.7C1.8,53,2.8,52,4,52h59.7c1.3,0,2.3,1,2.3,2.3V58"/>
<g>
	<g>
		<path class="st1" d="M43.9,19.1c0,0,0.2,1.9-0.7,4.9c-1.5,5-3.6,8.1-9.4,8.1S26.1,29,24.5,24c-0.9-2.9-0.7-4.9-0.7-4.9"/>
		<path class="st1" d="M22,18.6c0,0,6.5-1.5,8.1-7.9c0,0,7,8.4,15.8,8"/>
		<path class="st2" d="M14.4,46.1c0,0-0.1-7.4,3.2-8.5s6.3-2.4,6.3-2.4l-1.2,5.5l4.9,1.8l1.7,3.6"/>
		<path class="st2" d="M53.4,46.1c0,0,0.1-7.4-3.2-8.5c-3.3-1.1-6.3-2.4-6.3-2.4l1.2,5.5l-4.9,1.8l-1.7,3.6"/>
		<polyline class="st3" points="29.8,36.1 33.9,42.4 37.7,36.1 		"/>
	</g>
	<path class="st1" d="M40.5,29.5"/>
	<path class="st2" d="M21.6,31.7c0,0-2.9-5.7-3.4-11.2c-0.7-7.7,3.3-18.7,15.7-18.7"/>
	<path class="st2" d="M46.2,31.7c0,0,2.9-5.7,3.4-11.2c0.7-7.7-3.3-18.7-15.7-18.7"/>
</g>
</svg>
