<svg xmlns="http://www.w3.org/2000/svg" viewBox="0 0 105.957 71.213">
  <defs>
    <style>
      .a, .b, .c {
        fill: none;
        stroke-linecap: round;
        stroke-width: 3.5px;
      }

      .a, .b {
        stroke: #727272;
      }

      .a, .c {
        stroke-miterlimit: 10;
      }

      .b {
        stroke-linejoin: round;
      }

      .c {
        stroke: #00a26a;
      }
    </style>
  </defs>
  <g>
    <path class="a" d="M12.566,24.589s-7.787,8.7-10.3,14.081C-.214,43.994,7,63.429,7,69.463"/>
    <path class="a" d="M29.071,69.463S35.29,64,35.46,59.206a43.442,43.442,0,0,0-.041-6.254"/>
    <g>
      <line class="b" x1="12.024" y1="21.091" x2="80.921" y2="10.426"/>
      <line class="b" x1="13.514" y1="30.714" x2="82.41" y2="20.048"/>
      <path class="c" d="M15.777,45.333,11.206,15.8a4.011,4.011,0,0,1,3.341-4.565L75.537,1.8A4.012,4.012,0,0,1,80.1,5.138l5.571,35.986a4.012,4.012,0,0,1-3.341,4.565l-57.88,8.96"/>
      <line class="b" x1="56.604" y1="31.531" x2="61.84" y2="30.72"/>
      <line class="b" x1="69.035" y1="29.607" x2="74.271" y2="28.796"/>
    </g>
    <path class="a" d="M11.145,50.029s8.076-8.514,12.513-11.709,7.448-2.117,9.14-.538c2,1.864,2.9,5.4-1.664,9.141-2.84,2.326-5.924,6.167-6.656,7.9A10.193,10.193,0,0,1,20.729,66"/>
    <path class="a" d="M103.886,52.611c-4.229,1.754-5.575,3.71-6.782,9.857-.122.621-.733.621-.855,0-1.206-6.147-2.552-8.1-6.781-9.857a.761.761,0,0,1,0-1.242c4.229-1.754,5.575-3.711,6.781-9.858.122-.621.733-.621.855,0,1.207,6.147,2.553,8.1,6.782,9.858A.762.762,0,0,1,103.886,52.611Z"/>
  </g>
</svg>
