<svg xmlns="http://www.w3.org/2000/svg" viewBox="0 0 74.088 73.32">
  <defs>
    <style>
      .a {
        fill: #00a26a;
      }

      .b {
        fill: none;
        stroke: #727272;
        stroke-linecap: round;
        stroke-linejoin: round;
        stroke-width: 3.5px;
      }
    </style>
  </defs>
  <g>
    <path class="a" d="M32.887,42.27H29.068a1.2,1.2,0,1,1,0-2.4h3.819v-.893l-.523-.893h-3.3a1.2,1.2,0,1,1,0-2.4h1.879L26.881,29a2.623,2.623,0,0,1-.431-1.263,1.9,1.9,0,0,1,.832-1.694,3.211,3.211,0,0,1,1.816-.554,1.9,1.9,0,0,1,1.325.446,3.422,3.422,0,0,1,.77,1l4.128,7.854,4.127-7.854a3.4,3.4,0,0,1,.769-1,1.9,1.9,0,0,1,1.324-.446,3.213,3.213,0,0,1,1.818.554,1.9,1.9,0,0,1,.832,1.694A2.626,2.626,0,0,1,43.759,29l-4.065,6.683h1.879a1.2,1.2,0,1,1,0,2.4h-3.3l-.525.893v.893h3.82a1.2,1.2,0,1,1,0,2.4h-3.82v3.05a2.478,2.478,0,0,1-.646,1.786,2.693,2.693,0,0,1-3.573,0,2.475,2.475,0,0,1-.647-1.786Z"/>
    <path class="b" d="M1.75,46.516a36.169,36.169,0,0,0,70.588-11.11A35.87,35.87,0,0,0,60.693,8.839l2.894-3.674a1.1,1.1,0,0,0-.773-1.777L43.194,1.754A1.1,1.1,0,0,0,42.059,3.2l6.185,18.69a1.1,1.1,0,0,0,1.909.335l3.024-3.839A24.06,24.06,0,1,1,21.542,16.3"/>
  </g>
</svg>
