<svg id="レイヤー_1" data-name="レイヤー 1" xmlns="http://www.w3.org/2000/svg" xmlns:xlink="http://www.w3.org/1999/xlink" viewBox="0 0 78.068 69.854">
  <defs>
    <style>
      .cls-1 {
        fill: none;
      }

      .cls-2 {
        fill: #00469b;
      }

      .cls-3 {
        clip-path: url(#clip-path);
      }

      .cls-4 {
        fill: url(#名称未設定グラデーション_5);
      }

      .cls-5 {
        clip-path: url(#clip-path-2);
      }

      .cls-6 {
        fill: url(#名称未設定グラデーション_2);
      }

      .cls-7 {
        clip-path: url(#clip-path-3);
      }

      .cls-8 {
        fill: url(#名称未設定グラデーション_3);
      }

      .cls-9 {
        clip-path: url(#clip-path-4);
      }

      .cls-10 {
        fill: url(#名称未設定グラデーション_4);
      }

      .cls-11 {
        clip-path: url(#clip-path-5);
      }

      .cls-12 {
        fill: url(#名称未設定グラデーション_8);
      }

      .cls-13 {
        clip-path: url(#clip-path-6);
      }

      .cls-14 {
        fill: url(#名称未設定グラデーション_8-2);
      }

      .cls-15 {
        clip-path: url(#clip-path-7);
      }

      .cls-16 {
        fill: url(#名称未設定グラデーション_8-3);
      }

      .cls-17 {
        clip-path: url(#clip-path-8);
      }

      .cls-18 {
        fill: url(#名称未設定グラデーション_8-4);
      }

      .cls-19 {
        fill: #727272;
      }
    </style>
    <clipPath id="clip-path">
      <path class="cls-1" d="M24.627.007a10.921,10.921,0,0,0-4.816,1.159A13.546,13.546,0,0,0,15.636,4.4s3.547.453,4.567.588l.019-.02A14.9,14.9,0,0,1,24.8,1.3,11.5,11.5,0,0,1,29.988.007.105.105,0,0,1,30.028,0Z"/>
    </clipPath>
    <linearGradient id="名称未設定グラデーション_5" data-name="名称未設定グラデーション 5" x1="-715.506" y1="-347.342" x2="-715.308" y2="-347.342" gradientTransform="matrix(27.62, 0, 0, -27.62, 19782.616, -9591.157)" gradientUnits="userSpaceOnUse">
      <stop offset="0" stop-color="#0068b6"/>
      <stop offset="0.2" stop-color="#0068b6"/>
      <stop offset="0.7" stop-color="#0091d7"/>
      <stop offset="0.736" stop-color="#0995d9"/>
      <stop offset="0.795" stop-color="#21a0dd"/>
      <stop offset="0.87" stop-color="#49b2e5"/>
      <stop offset="0.956" stop-color="#80caef"/>
      <stop offset="1" stop-color="#9ed8f5"/>
    </linearGradient>
    <clipPath id="clip-path-2">
      <path class="cls-1" d="M32.986,5.182a7.085,7.085,0,0,0-2.091.4,8.787,8.787,0,0,1,3.772,7.579c0,4.839-3.177,9.265-7.307,9.924a6.579,6.579,0,0,1-1.095.08,8.257,8.257,0,0,0,.6.686,6.671,6.671,0,0,0,6.125,2.029,8.989,8.989,0,0,0,5.632-3.953,13,13,0,0,0,2.2-7.268,10.781,10.781,0,0,0-2.2-6.779,6.861,6.861,0,0,0-5.379-2.706c-.084,0-.168,0-.253.005"/>
    </clipPath>
    <linearGradient id="名称未設定グラデーション_2" data-name="名称未設定グラデーション 2" x1="-684.754" y1="-334.688" x2="-684.555" y2="-334.688" gradientTransform="matrix(110.706, 0, 0, -110.706, 75828.674, -37036.157)" gradientUnits="userSpaceOnUse">
      <stop offset="0" stop-color="#0098d8"/>
      <stop offset="0.02" stop-color="#0098d8"/>
      <stop offset="0.3" stop-color="#62afe2"/>
      <stop offset="0.7" stop-color="#badcf4"/>
      <stop offset="0.95" stop-color="#0068b6"/>
      <stop offset="1" stop-color="#0068b6"/>
    </linearGradient>
    <clipPath id="clip-path-3">
      <path class="cls-1" d="M10.834,30.783c.89,7.065,3.2,11.71,4.372,13.342l4.253,3.157c-1.486-2.316-3.826-7.468-4.619-14.962S14.8,15,19.5,3.312l-4.543-.4c-4.492,11.322-5.017,20.808-4.124,27.874"/>
    </clipPath>
    <linearGradient id="名称未設定グラデーション_3" data-name="名称未設定グラデーション 3" x1="-680.371" y1="-332.086" x2="-680.172" y2="-332.086" gradientTransform="matrix(220.578, 0, 0, -220.578, 150067.855, -73225.708)" gradientUnits="userSpaceOnUse">
      <stop offset="0" stop-color="#0080cb"/>
      <stop offset="0.05" stop-color="#0080cb"/>
      <stop offset="0.4" stop-color="#b6daf3"/>
      <stop offset="0.98" stop-color="#0091d7"/>
      <stop offset="1" stop-color="#0091d7"/>
    </linearGradient>
    <clipPath id="clip-path-4">
      <path class="cls-1" d="M26.861,23.854a10.453,10.453,0,0,1-2.7-7.34,12.831,12.831,0,0,1,2.7-7.941,8.375,8.375,0,0,1,6.125-3.391,6.835,6.835,0,0,1,5.632,2.7,10.781,10.781,0,0,1,2.2,6.779,13,13,0,0,1-2.2,7.268,8.989,8.989,0,0,1-5.632,3.953A6.864,6.864,0,0,1,31.737,26a6.74,6.74,0,0,1-4.876-2.145M29.988.007A11.5,11.5,0,0,0,24.8,1.3a14.9,14.9,0,0,0-4.574,3.671l-.019.02c-.222-.559-.459-1.132-.7-1.679C14.8,15,14.048,24.827,14.84,32.32A36.441,36.441,0,0,0,19.3,47.033c.034.055.068.11.1.161.022.033.04.062.061.092a.027.027,0,0,0,.031.015.029.029,0,0,0,.026-.015,66.765,66.765,0,0,0,3.283-11.261q.477-2.423.752-4.873a10.169,10.169,0,0,0,1.239.439,10.587,10.587,0,0,0,5.235.124,12.754,12.754,0,0,0,4.881-2.288,16.378,16.378,0,0,0,3.745-3.993,19.718,19.718,0,0,0,3.275-10.9A16.385,16.385,0,0,0,38.657,4.37a11.791,11.791,0,0,0-3.745-3.161,10.407,10.407,0,0,0-4.881-1.2h-.043"/>
    </clipPath>
    <linearGradient id="名称未設定グラデーション_4" data-name="名称未設定グラデーション 4" x1="-669.829" y1="-330.881" x2="-669.63" y2="-330.881" gradientTransform="matrix(0, 171.069, 171.069, 0, 56631.538, 114589.595)" gradientUnits="userSpaceOnUse">
      <stop offset="0" stop-color="#0096df"/>
      <stop offset="0.203" stop-color="#0082ce"/>
      <stop offset="0.735" stop-color="#0052a6"/>
      <stop offset="1" stop-color="#004097"/>
    </linearGradient>
    <clipPath id="clip-path-5">
      <path class="cls-1" d="M25.542,15.8a3.776,3.776,0,1,0,3.778-3.775A3.777,3.777,0,0,0,25.542,15.8"/>
    </clipPath>
    <radialGradient id="名称未設定グラデーション_8" data-name="名称未設定グラデーション 8" cx="-652.506" cy="-384.03" r="0.199" gradientTransform="matrix(18.98, 0, 0, -18.98, 12413.945, -7273.264)" gradientUnits="userSpaceOnUse">
      <stop offset="0" stop-color="#dadf00"/>
      <stop offset="0.15" stop-color="#dadf00"/>
      <stop offset="0.238" stop-color="#d4dd02"/>
      <stop offset="0.353" stop-color="#c4d807"/>
      <stop offset="0.484" stop-color="#a9cf0f"/>
      <stop offset="0.625" stop-color="#83c31b"/>
      <stop offset="0.776" stop-color="#52b32a"/>
      <stop offset="0.931" stop-color="#18a03d"/>
      <stop offset="0.99" stop-color="#009844"/>
      <stop offset="1" stop-color="#009844"/>
    </radialGradient>
    <clipPath id="clip-path-6">
      <path class="cls-1" d="M6.054,15.8a1.988,1.988,0,1,0,1.987-1.988A1.987,1.987,0,0,0,6.054,15.8"/>
    </clipPath>
    <radialGradient id="名称未設定グラデーション_8-2" cx="-622.288" cy="-433.36" r="0.199" gradientTransform="matrix(9.993, 0, 0, -9.993, 6226.236, -4314.632)" xlink:href="#名称未設定グラデーション_8"/>
    <clipPath id="clip-path-7">
      <path class="cls-1" d="M46.709,15.8a5.9,5.9,0,1,0,5.9-5.9,5.9,5.9,0,0,0-5.9,5.9"/>
    </clipPath>
    <radialGradient id="名称未設定グラデーション_8-3" cx="-664.331" cy="-364.294" r="0.199" gradientTransform="matrix(29.652, 0, 0, -29.652, 19751.459, -10786.512)" xlink:href="#名称未設定グラデーション_8"/>
    <clipPath id="clip-path-8">
      <path class="cls-1" d="M35.133,15.8a4.721,4.721,0,1,0,4.721-4.718A4.723,4.723,0,0,0,35.133,15.8"/>
    </clipPath>
    <radialGradient id="名称未設定グラデーション_8-4" cx="-659.109" cy="-373.059" r="0.199" gradientTransform="matrix(23.725, 0, 0, -23.725, 15677.169, -8835.133)" xlink:href="#名称未設定グラデーション_8"/>
  </defs>
  <g>
    <g>
      <g>
        <path class="cls-2" d="M44.46,44.3a2.694,2.694,0,0,0,1.774.56,4.4,4.4,0,0,0,2.777-1.064v1.452a5.416,5.416,0,0,1-3.348.989,5.532,5.532,0,0,1-1.9-.31,3.852,3.852,0,0,1-1.408-.88,3.685,3.685,0,0,1-1.038-2.678,4.194,4.194,0,0,1,.289-1.573,3.6,3.6,0,0,1,.809-1.237,3.668,3.668,0,0,1,1.252-.816,4.339,4.339,0,0,1,1.6-.292,3.844,3.844,0,0,1,2.813,1.134,4.141,4.141,0,0,1,1.055,3.131h-5.4v.012A2.177,2.177,0,0,0,44.46,44.3m2.618-2.812a1.963,1.963,0,0,0-.514-1.219,1.68,1.68,0,0,0-2.266,0,1.963,1.963,0,0,0-.506,1.224l0,.011h3.289Z"/>
        <path class="cls-2" d="M62.823,45.734a3.671,3.671,0,0,1-2.329.651,6.977,6.977,0,0,1-2.759-.565V44.133a6.269,6.269,0,0,0,2.491.65,1.556,1.556,0,0,0,1.062-.291.4.4,0,0,0,.128-.295c0-.458-.632-.7-1.363-.985-1.108-.427-2.486-.964-2.486-2.476a2.059,2.059,0,0,1,.612-1.488,3.615,3.615,0,0,1,2.585-.886,5.182,5.182,0,0,1,2.493.567v1.7a5.453,5.453,0,0,0-2.576-.848c-.4,0-.887.107-.887.619,0,.32.517.526,1.174.785,1.127.446,2.675,1.058,2.675,2.694a2.24,2.24,0,0,1-.82,1.854"/>
        <polygon class="cls-2" points="33.742 48.813 31.258 48.813 33.05 44.882 33.053 44.877 33.05 44.873 30.123 38.594 32.624 38.594 34.203 42.451 34.214 42.479 34.227 42.453 35.92 38.594 38.371 38.594 33.742 48.813"/>
        <polygon class="cls-2" points="67.318 48.813 64.835 48.813 66.626 44.882 66.629 44.877 66.626 44.873 63.699 38.594 66.201 38.594 67.78 42.451 67.79 42.479 67.8 42.453 69.496 38.594 71.947 38.594 67.318 48.813"/>
        <path class="cls-2" d="M54.608,46.041a1.032,1.032,0,0,1-.421-.644l-.006-.017-.013.011a4.2,4.2,0,0,1-2.475.843,2.179,2.179,0,0,1-1.56-.625A1.712,1.712,0,0,1,49.6,44.4c0-1.735,1.229-2.117,4.2-3.038l.259-.081.009,0v-.007a1.157,1.157,0,0,0-.262-.911,1.381,1.381,0,0,0-1.054-.357,3.6,3.6,0,0,0-1.465.34,4.454,4.454,0,0,0-1.3.9v-1.89a6.121,6.121,0,0,1,3.249-.908,3.623,3.623,0,0,1,2.616.783,2.02,2.02,0,0,1,.555,1.489v3.426a.588.588,0,0,0,.13.435.373.373,0,0,0,.273.1.949.949,0,0,0,.532-.184v1.247a4.731,4.731,0,0,1-1.854.493,1.632,1.632,0,0,1-.887-.193m-.553-3.588a7.211,7.211,0,0,0-1.564.7,1.027,1.027,0,0,0-.516.894.819.819,0,0,0,.241.585.756.756,0,0,0,.54.226,2.016,2.016,0,0,0,1.311-.574l.005,0V42.445Z"/>
        <rect class="cls-2" x="37.501" y="42.208" width="2.984" height="1.438"/>
        <path class="cls-2" d="M28.189,46.041a1.026,1.026,0,0,1-.423-.644l0-.017-.015.011a4.189,4.189,0,0,1-2.472.843,2.183,2.183,0,0,1-1.562-.625,1.717,1.717,0,0,1-.53-1.206c0-1.735,1.229-2.117,4.2-3.038l.259-.081.01,0v-.007a1.168,1.168,0,0,0-.264-.911,1.375,1.375,0,0,0-1.053-.357,3.6,3.6,0,0,0-1.465.34,4.468,4.468,0,0,0-1.3.9v-1.89a6.114,6.114,0,0,1,3.25-.908,3.625,3.625,0,0,1,2.615.783,2.012,2.012,0,0,1,.554,1.489v3.426a.6.6,0,0,0,.129.435.375.375,0,0,0,.274.1.956.956,0,0,0,.534-.184v1.247a4.74,4.74,0,0,1-1.856.493,1.618,1.618,0,0,1-.884-.193m-.555-3.588a7.176,7.176,0,0,0-1.563.7,1.027,1.027,0,0,0-.516.894.814.814,0,0,0,.24.585.758.758,0,0,0,.54.226,2.01,2.01,0,0,0,1.312-.574l.005,0V42.445Z"/>
      </g>
      <g class="cls-3">
        <rect class="cls-4" x="20.211" y="-4.743" width="5.241" height="14.476" transform="translate(19.939 25.28) rotate(-89)"/>
      </g>
      <g class="cls-5">
        <rect class="cls-6" x="21.87" y="6.744" width="23.344" height="18.003" transform="translate(12.211 46.044) rotate(-80)"/>
      </g>
      <g class="cls-7">
        <rect class="cls-8" x="-7.914" y="17.274" width="45.271" height="15.643" transform="translate(-12.179 36.181) rotate(-82)"/>
      </g>
      <g class="cls-9">
        <rect class="cls-10" x="2.109" y="-3.422" width="51.763" height="54.155" transform="translate(-8.657 23.527) rotate(-40.001)"/>
      </g>
      <g class="cls-11">
        <rect class="cls-12" x="25.542" y="12.024" width="7.553" height="7.553"/>
      </g>
      <g class="cls-13">
        <rect class="cls-14" x="6.054" y="13.811" width="3.976" height="3.976"/>
      </g>
      <g class="cls-15">
        <rect class="cls-16" x="46.709" y="9.901" width="11.801" height="11.799"/>
      </g>
      <g class="cls-17">
        <rect class="cls-18" x="35.133" y="11.081" width="9.442" height="9.44"/>
      </g>
    </g>
    <g>
      <path class="cls-19" d="M.78,68.305a9.225,9.225,0,0,0,4.8-2.52,16.937,16.937,0,0,0-3.154-2.026A7.823,7.823,0,0,1,1.044,64.85L0,63.627a7.458,7.458,0,0,0,3.1-3.515H7.856l1.452,1.823a9.924,9.924,0,0,1-7.724,7.821Zm3.382-6.729c-.252.4-.42.623-.815,1.151a16.563,16.563,0,0,1,3.19,1.9,10.306,10.306,0,0,0,1.235-3.046Zm4.581-2.639a11.3,11.3,0,0,1,1.44,2.123l-.791.587A9.581,9.581,0,0,0,8,59.477Zm1.535-.515a10.253,10.253,0,0,1,1.428,2.135l-.792.575a10.053,10.053,0,0,0-1.379-2.183Z"/>
      <path class="cls-19" d="M17.409,69.575h-1.7V64.5a18.7,18.7,0,0,1-4.185,1.955l-.792-1.415a17.842,17.842,0,0,0,8.563-5.8l1.439.995a23.2,23.2,0,0,1-3.322,3.095Z"/>
      <path class="cls-19" d="M24.719,67.681c2.818-.325,4.857-1.572,6.068-5.373l1.44.851c-1.523,4.09-3.79,6.1-9.2,6.284V59.561h1.691Z"/>
      <path class="cls-19" d="M34.632,68.2c3.263-.6,6.417-2.35,7.124-6.836H38a9.767,9.767,0,0,1-3.046,3.107l-1.019-1.188a7.7,7.7,0,0,0,3.01-3.394H43.6c-.193,2.411-.924,8.311-8.325,9.8Z"/>
      <path class="cls-19" d="M52.879,66.386a23.825,23.825,0,0,0-4.833-2.495v5.7H46.319V59.345h1.727v2.879a30.181,30.181,0,0,1,5.673,2.494Z"/>
      <path class="cls-19" d="M59.833,68.308a.188.188,0,0,1,.059-.147.181.181,0,0,1,.152-.041q.656.046,1.172.07c.344.016.648.024.914.024a.739.739,0,0,0,.6-.235A2.207,2.207,0,0,0,63.044,67a15.986,15.986,0,0,0,.117-2.262V64.64h-3.7c-.031.148-.059.283-.082.4s-.047.224-.07.31a7.577,7.577,0,0,1-1.1,2.473,7.152,7.152,0,0,1-.855.979,11.625,11.625,0,0,1-1.172.978.169.169,0,0,1-.246-.023l-.832-.926a.166.166,0,0,1-.053-.135.216.216,0,0,1,.088-.146,9.85,9.85,0,0,0,1.324-1.114,3.449,3.449,0,0,0,.51-.621,5.583,5.583,0,0,0,.416-.773,6.415,6.415,0,0,0,.5-1.77q.059-.514.093-1.136t.036-1.348H55.075a.156.156,0,0,1-.176-.176v-1c0-.125.059-.187.176-.187h4.442v-1.36a.165.165,0,0,1,.187-.187h1.277a.166.166,0,0,1,.188.187v1.36H65.6a.165.165,0,0,1,.187.187v1c0,.117-.062.176-.187.176h-5.93q0,.434-.012.8c-.008.242-.019.469-.035.679h4.957c.125,0,.188.059.188.176v.891q0,1.218-.036,2.051c-.015.265-.037.517-.064.755s-.064.467-.111.686a5.4,5.4,0,0,1-.129.568c-.047.161-.09.291-.129.393a1.09,1.09,0,0,1-.445.539,1.779,1.779,0,0,1-.6.27c-.117.015-.242.029-.375.041s-.281.017-.445.017q-.9,0-2.391-.117c-.109-.016-.164-.07-.164-.164Z"/>
      <path class="cls-19" d="M75.4,58.85a.159.159,0,0,1,.234-.046q.422.234.855.509t.856.58a.179.179,0,0,1,.082.123.167.167,0,0,1-.035.135l-.375.5h.562c.125,0,.188.059.188.176v.937c0,.118-.063.176-.188.176H74.634a.178.178,0,0,1,.012.076.552.552,0,0,0,.011.112.553.553,0,0,1,.012.111v.076a24.043,24.043,0,0,0,.352,2.6c.085.375.166.709.24,1s.146.549.217.767c.093.243.177.453.251.633a3.97,3.97,0,0,0,.206.434c.132.226.242.34.328.34q.268,0,.48-1.7a.2.2,0,0,1,.094-.158.186.186,0,0,1,.176-.017l.949.386a.158.158,0,0,1,.1.164,8.269,8.269,0,0,1-.2,1.366,3.839,3.839,0,0,1-.351.943,1.29,1.29,0,0,1-1.079.773,1.416,1.416,0,0,1-.667-.152,2.489,2.489,0,0,1-.692-.527,4.219,4.219,0,0,1-.644-.926,10.02,10.02,0,0,1-.563-1.43q-.117-.387-.234-.873t-.223-1.1q-.093-.573-.17-1.23T73.1,62.237V62.1a.6.6,0,0,0-.012-.153H67.146c-.125,0-.188-.058-.188-.176v-.937c0-.117.063-.176.188-.176h5.871q-.012-.258-.018-.633t-.006-.879c0-.132.063-.2.188-.2h1.16c.117,0,.176.063.176.188q0,.785.035,1.523h1.711c-.235-.156-.459-.3-.674-.439s-.432-.264-.651-.381a.222.222,0,0,1-.093-.123.174.174,0,0,1,.035-.158Zm-1.922,9.387a.171.171,0,0,1-.129.2,39.626,39.626,0,0,1-5.778,1.079.158.158,0,0,1-.2-.153l-.14-.961a.167.167,0,0,1,.164-.211q.514-.059,1-.134c.32-.051.633-.1.937-.135V64.452h-1.64c-.125,0-.188-.059-.188-.176V63.35c0-.117.063-.175.188-.175H72.6c.125,0,.187.058.187.175v.926c0,.117-.062.176-.187.176H70.919v3.211q.587-.117,1.125-.234t1.031-.246a.2.2,0,0,1,.164.017.218.218,0,0,1,.082.135Z"/>
    </g>
  </g>
</svg>
