<svg id="レイヤー_1" data-name="レイヤー 1" xmlns="http://www.w3.org/2000/svg" xmlns:xlink="http://www.w3.org/1999/xlink" viewBox="0 0 74.82 70.043">
  <defs>
    <style>
      .cls-1 {
        fill: none;
      }

      .cls-2 {
        fill: #00469b;
      }

      .cls-3 {
        clip-path: url(#clip-path);
      }

      .cls-4 {
        fill: url(#名称未設定グラデーション_5);
      }

      .cls-5 {
        clip-path: url(#clip-path-2);
      }

      .cls-6 {
        fill: url(#名称未設定グラデーション_2);
      }

      .cls-7 {
        clip-path: url(#clip-path-3);
      }

      .cls-8 {
        fill: url(#名称未設定グラデーション_3);
      }

      .cls-9 {
        clip-path: url(#clip-path-4);
      }

      .cls-10 {
        fill: url(#名称未設定グラデーション_4);
      }

      .cls-11 {
        clip-path: url(#clip-path-5);
      }

      .cls-12 {
        fill: url(#名称未設定グラデーション_8);
      }

      .cls-13 {
        clip-path: url(#clip-path-6);
      }

      .cls-14 {
        fill: url(#名称未設定グラデーション_8-2);
      }

      .cls-15 {
        clip-path: url(#clip-path-7);
      }

      .cls-16 {
        fill: url(#名称未設定グラデーション_8-3);
      }

      .cls-17 {
        clip-path: url(#clip-path-8);
      }

      .cls-18 {
        fill: url(#名称未設定グラデーション_8-4);
      }

      .cls-19 {
        fill: #727272;
      }
    </style>
    <clipPath id="clip-path">
      <path class="cls-1" d="M22.709.007a10.928,10.928,0,0,0-4.817,1.159A13.542,13.542,0,0,0,13.718,4.4s3.547.453,4.567.588l.019-.02A14.884,14.884,0,0,1,22.878,1.3,11.5,11.5,0,0,1,28.069.007.112.112,0,0,1,28.109,0Z"/>
    </clipPath>
    <linearGradient id="名称未設定グラデーション_5" data-name="名称未設定グラデーション 5" x1="-1204.013" y1="-641.732" x2="-1203.814" y2="-641.732" gradientTransform="matrix(27.62, 0, 0, -27.62, 33273.368, -17722.295)" gradientUnits="userSpaceOnUse">
      <stop offset="0" stop-color="#0068b6"/>
      <stop offset="0.2" stop-color="#0068b6"/>
      <stop offset="0.7" stop-color="#0091d7"/>
      <stop offset="0.736" stop-color="#0995d9"/>
      <stop offset="0.795" stop-color="#21a0dd"/>
      <stop offset="0.87" stop-color="#49b2e5"/>
      <stop offset="0.956" stop-color="#80caef"/>
      <stop offset="1" stop-color="#9ed8f5"/>
    </linearGradient>
    <clipPath id="clip-path-2">
      <path class="cls-1" d="M31.068,5.182a7.073,7.073,0,0,0-2.091.4,8.789,8.789,0,0,1,3.772,7.579c0,4.839-3.177,9.265-7.308,9.924a6.567,6.567,0,0,1-1.094.08,8.247,8.247,0,0,0,.595.686,6.673,6.673,0,0,0,6.126,2.029A8.989,8.989,0,0,0,36.7,21.93a13,13,0,0,0,2.2-7.268,10.786,10.786,0,0,0-2.2-6.779,6.863,6.863,0,0,0-5.38-2.706c-.083,0-.168,0-.252.005"/>
    </clipPath>
    <linearGradient id="名称未設定グラデーション_2" data-name="名称未設定グラデーション 2" x1="-1165.252" y1="-616.318" x2="-1165.053" y2="-616.318" gradientTransform="matrix(110.706, 0, 0, -110.706, 129020.66, -68214.195)" gradientUnits="userSpaceOnUse">
      <stop offset="0" stop-color="#0098d8"/>
      <stop offset="0.02" stop-color="#0098d8"/>
      <stop offset="0.3" stop-color="#62afe2"/>
      <stop offset="0.7" stop-color="#badcf4"/>
      <stop offset="0.95" stop-color="#0068b6"/>
      <stop offset="1" stop-color="#0068b6"/>
    </linearGradient>
    <clipPath id="clip-path-3">
      <path class="cls-1" d="M8.916,30.783c.89,7.065,3.2,11.71,4.372,13.342l4.253,3.157c-1.486-2.316-3.827-7.468-4.62-14.962S12.885,15,17.583,3.312l-4.543-.4C8.548,14.231,8.022,23.717,8.916,30.783"/>
    </clipPath>
    <linearGradient id="名称未設定グラデーション_3" data-name="名称未設定グラデーション 3" x1="-1160.096" y1="-611.355" x2="-1159.897" y2="-611.355" gradientTransform="matrix(220.578, 0, 0, -220.578, 255882.49, -134826.17)" gradientUnits="userSpaceOnUse">
      <stop offset="0" stop-color="#0080cb"/>
      <stop offset="0.05" stop-color="#0080cb"/>
      <stop offset="0.4" stop-color="#b6daf3"/>
      <stop offset="0.98" stop-color="#0091d7"/>
      <stop offset="1" stop-color="#0091d7"/>
    </linearGradient>
    <clipPath id="clip-path-4">
      <path class="cls-1" d="M24.942,23.854a10.457,10.457,0,0,1-2.7-7.34,12.837,12.837,0,0,1,2.7-7.941,8.377,8.377,0,0,1,6.126-3.391,6.835,6.835,0,0,1,5.632,2.7,10.786,10.786,0,0,1,2.2,6.779,13,13,0,0,1-2.2,7.268,8.989,8.989,0,0,1-5.632,3.953A6.864,6.864,0,0,1,29.819,26a6.744,6.744,0,0,1-4.877-2.145M28.069.007A11.5,11.5,0,0,0,22.878,1.3,14.884,14.884,0,0,0,18.3,4.971l-.019.02c-.223-.559-.459-1.132-.7-1.679C12.885,15,12.13,24.827,12.921,32.32a36.457,36.457,0,0,0,4.463,14.713c.034.055.069.11.1.161l.06.092a.029.029,0,0,0,.032.015.031.031,0,0,0,.026-.015,66.858,66.858,0,0,0,3.283-11.261q.477-2.423.751-4.873a10.184,10.184,0,0,0,1.24.439,10.586,10.586,0,0,0,5.235.124,12.754,12.754,0,0,0,4.881-2.288,16.378,16.378,0,0,0,3.745-3.993,19.718,19.718,0,0,0,3.275-10.9A16.385,16.385,0,0,0,36.739,4.37a11.791,11.791,0,0,0-3.745-3.161,10.407,10.407,0,0,0-4.881-1.2h-.044"/>
    </clipPath>
    <linearGradient id="名称未設定グラデーション_4" data-name="名称未設定グラデーション 4" x1="-1145.579" y1="-606.739" x2="-1145.38" y2="-606.739" gradientTransform="matrix(0, 171.069, 171.069, 0, 103820.565, 195975.892)" gradientUnits="userSpaceOnUse">
      <stop offset="0" stop-color="#0096df"/>
      <stop offset="0.203" stop-color="#0082ce"/>
      <stop offset="0.735" stop-color="#0052a6"/>
      <stop offset="1" stop-color="#004097"/>
    </linearGradient>
    <clipPath id="clip-path-5">
      <path class="cls-1" d="M23.623,15.8A3.777,3.777,0,1,0,27.4,12.024,3.777,3.777,0,0,0,23.623,15.8"/>
    </clipPath>
    <radialGradient id="名称未設定グラデーション_8" data-name="名称未設定グラデーション 8" cx="-1106.164" cy="-675.575" r="0.199" gradientTransform="matrix(18.98, 0, 0, -18.98, 21022.574, -12806.861)" gradientUnits="userSpaceOnUse">
      <stop offset="0" stop-color="#dadf00"/>
      <stop offset="0.15" stop-color="#dadf00"/>
      <stop offset="0.238" stop-color="#d4dd02"/>
      <stop offset="0.353" stop-color="#c4d807"/>
      <stop offset="0.484" stop-color="#a9cf0f"/>
      <stop offset="0.625" stop-color="#83c31b"/>
      <stop offset="0.776" stop-color="#52b32a"/>
      <stop offset="0.931" stop-color="#18a03d"/>
      <stop offset="0.99" stop-color="#009844"/>
      <stop offset="1" stop-color="#009844"/>
    </radialGradient>
    <clipPath id="clip-path-6">
      <path class="cls-1" d="M4.135,15.8a1.989,1.989,0,1,0,1.987-1.988A1.988,1.988,0,0,0,4.135,15.8"/>
    </clipPath>
    <radialGradient id="名称未設定グラデーション_8-2" cx="-1053.349" cy="-738.029" r="0.199" gradientTransform="matrix(9.993, 0, 0, -9.993, 10531.72, -7359.06)" xlink:href="#名称未設定グラデーション_8"/>
    <clipPath id="clip-path-7">
      <path class="cls-1" d="M44.791,15.8a5.9,5.9,0,1,0,5.9-5.9,5.9,5.9,0,0,0-5.9,5.9"/>
    </clipPath>
    <radialGradient id="名称未設定グラデーション_8-3" cx="-1127.032" cy="-650.588" r="0.199" gradientTransform="matrix(29.652, 0, 0, -29.652, 33469.687, -19275.774)" xlink:href="#名称未設定グラデーション_8"/>
    <clipPath id="clip-path-8">
      <path class="cls-1" d="M33.215,15.8a4.721,4.721,0,1,0,4.72-4.718,4.723,4.723,0,0,0-4.72,4.718"/>
    </clipPath>
    <radialGradient id="名称未設定グラデーション_8-4" cx="-1117.792" cy="-661.686" r="0.199" gradientTransform="matrix(23.725, 0, 0, -23.725, 26557.533, -15682.824)" xlink:href="#名称未設定グラデーション_8"/>
  </defs>
  <g>
    <g>
      <g>
        <path class="cls-2" d="M42.542,44.3a2.693,2.693,0,0,0,1.773.56,4.4,4.4,0,0,0,2.777-1.064v1.452a5.414,5.414,0,0,1-3.347.989,5.532,5.532,0,0,1-1.9-.31,3.865,3.865,0,0,1-1.409-.88A3.689,3.689,0,0,1,39.4,42.366a4.214,4.214,0,0,1,.289-1.573,3.6,3.6,0,0,1,.81-1.237,3.668,3.668,0,0,1,1.252-.816,4.334,4.334,0,0,1,1.6-.292,3.841,3.841,0,0,1,2.813,1.134,4.141,4.141,0,0,1,1.056,3.131h-5.4v.012a2.181,2.181,0,0,0,.719,1.572m2.618-2.812a1.969,1.969,0,0,0-.514-1.219,1.68,1.68,0,0,0-2.266,0,1.957,1.957,0,0,0-.506,1.224l0,.011h3.289Z"/>
        <path class="cls-2" d="M60.9,45.734a3.666,3.666,0,0,1-2.328.651,6.977,6.977,0,0,1-2.759-.565V44.133a6.265,6.265,0,0,0,2.491.65,1.556,1.556,0,0,0,1.062-.291A.4.4,0,0,0,59.5,44.2c0-.458-.631-.7-1.362-.985-1.108-.427-2.486-.964-2.486-2.476a2.062,2.062,0,0,1,.611-1.488,3.619,3.619,0,0,1,2.586-.886,5.182,5.182,0,0,1,2.493.567v1.7a5.456,5.456,0,0,0-2.576-.848c-.406,0-.888.107-.888.619,0,.32.517.526,1.175.785,1.127.446,2.674,1.058,2.674,2.694a2.237,2.237,0,0,1-.82,1.854"/>
        <polygon class="cls-2" points="31.824 48.813 29.34 48.813 31.132 44.882 31.134 44.877 31.132 44.873 28.205 38.594 30.705 38.594 32.285 42.451 32.296 42.479 32.309 42.453 34.001 38.594 36.453 38.594 31.824 48.813"/>
        <polygon class="cls-2" points="65.399 48.813 62.916 48.813 64.707 44.882 64.711 44.877 64.707 44.873 61.781 38.594 64.282 38.594 65.862 42.451 65.872 42.479 65.881 42.453 67.577 38.594 70.029 38.594 65.399 48.813"/>
        <path class="cls-2" d="M52.69,46.041a1.037,1.037,0,0,1-.422-.644l-.005-.017-.014.011a4.191,4.191,0,0,1-2.475.843,2.18,2.18,0,0,1-1.56-.625,1.715,1.715,0,0,1-.528-1.206c0-1.735,1.229-2.117,4.2-3.038l.258-.081.01,0v-.007a1.157,1.157,0,0,0-.263-.911,1.38,1.38,0,0,0-1.053-.357,3.6,3.6,0,0,0-1.466.34,4.45,4.45,0,0,0-1.3.9v-1.89a6.117,6.117,0,0,1,3.248-.908,3.624,3.624,0,0,1,2.617.783,2.02,2.02,0,0,1,.554,1.489v3.426a.584.584,0,0,0,.131.435.37.37,0,0,0,.273.1.947.947,0,0,0,.531-.184v1.247a4.731,4.731,0,0,1-1.854.493,1.628,1.628,0,0,1-.886-.193m-.553-3.588a7.211,7.211,0,0,0-1.564.7,1.029,1.029,0,0,0-.517.894.819.819,0,0,0,.242.585.756.756,0,0,0,.54.226,2.012,2.012,0,0,0,1.31-.574l.006,0V42.445Z"/>
        <rect class="cls-2" x="35.582" y="42.208" width="2.984" height="1.438"/>
        <path class="cls-2" d="M26.27,46.041a1.03,1.03,0,0,1-.423-.644l0-.017-.016.011a4.186,4.186,0,0,1-2.471.843,2.182,2.182,0,0,1-1.562-.625,1.717,1.717,0,0,1-.53-1.206c0-1.735,1.229-2.117,4.2-3.038l.259-.081.009,0v-.007a1.164,1.164,0,0,0-.263-.911,1.377,1.377,0,0,0-1.053-.357,3.606,3.606,0,0,0-1.466.34,4.463,4.463,0,0,0-1.3.9v-1.89a6.114,6.114,0,0,1,3.25-.908,3.625,3.625,0,0,1,2.615.783,2.016,2.016,0,0,1,.554,1.489v3.426a.6.6,0,0,0,.129.435.374.374,0,0,0,.274.1.951.951,0,0,0,.533-.184v1.247a4.74,4.74,0,0,1-1.855.493,1.619,1.619,0,0,1-.885-.193m-.555-3.588a7.164,7.164,0,0,0-1.562.7,1.025,1.025,0,0,0-.516.894.817.817,0,0,0,.239.585.762.762,0,0,0,.541.226,2.006,2.006,0,0,0,1.311-.574l0,0V42.445Z"/>
      </g>
      <g class="cls-3">
        <rect class="cls-4" x="18.293" y="-4.743" width="5.241" height="14.476" transform="translate(18.054 23.362) rotate(-89)"/>
      </g>
      <g class="cls-5">
        <rect class="cls-6" x="19.952" y="6.744" width="23.344" height="18.003" transform="translate(10.626 44.155) rotate(-80)"/>
      </g>
      <g class="cls-7">
        <rect class="cls-8" x="-9.833" y="17.274" width="45.271" height="15.643" transform="translate(-13.83 34.281) rotate(-82)"/>
      </g>
      <g class="cls-9">
        <rect class="cls-10" x="0.191" y="-3.422" width="51.763" height="54.155" transform="translate(-9.106 22.294) rotate(-40.001)"/>
      </g>
      <g class="cls-11">
        <rect class="cls-12" x="23.623" y="12.024" width="7.553" height="7.553"/>
      </g>
      <g class="cls-13">
        <rect class="cls-14" x="4.135" y="13.811" width="3.976" height="3.976"/>
      </g>
      <g class="cls-15">
        <rect class="cls-16" x="44.791" y="9.901" width="11.801" height="11.799"/>
      </g>
      <g class="cls-17">
        <rect class="cls-18" x="33.215" y="11.081" width="9.442" height="9.44"/>
      </g>
    </g>
    <g>
      <path class="cls-19" d="M9.656,59.894c.125,0,.188.059.188.176v9.6a.166.166,0,0,1-.188.187H8.379c-.117,0-.176-.062-.176-.187v-.5H1.641v.5c0,.125-.059.187-.176.187H.188A.165.165,0,0,1,0,69.668v-9.6c0-.117.062-.176.188-.176ZM8.2,67.851v-6.6H1.641v6.6Z"/>
      <path class="cls-19" d="M13.98,61.125v3.48a6.445,6.445,0,0,0,.815-1.4,7.732,7.732,0,0,0,.486-1.658.167.167,0,0,1,.188-.153l1.019.094a.177.177,0,0,1,.176.234q-.071.306-.129.592c-.039.192-.086.377-.14.557q.3.422.58.855t.521.9V61.605c0-.117.063-.176.188-.176h1.2a.156.156,0,0,1,.176.176v3.117a7.331,7.331,0,0,0,1.172-3.164.177.177,0,0,1,.2-.164l1.019.094a.164.164,0,0,1,.153.211q-.036.3-.082.586t-.118.551a10.837,10.837,0,0,1,.709,1q.334.527.663,1.113a.167.167,0,0,1-.059.223l-.75.48a.142.142,0,0,1-.152.041.246.246,0,0,1-.118-.111q-.175-.3-.369-.633c-.129-.219-.267-.441-.416-.668-.1.227-.215.453-.34.68a5.93,5.93,0,0,1-.421.656c-.063.109-.149.121-.258.035l-.832-.621v1.02H22.1a.165.165,0,0,1,.187.187V67.1a.166.166,0,0,1-.187.188H19.055v1.1h3.691a.156.156,0,0,1,.176.176V69.5c0,.125-.059.187-.176.187H13.828a.165.165,0,0,1-.187-.187v-.938c0-.117.062-.176.187-.176H17.5v-1.1H14.613c-.117,0-.175-.063-.175-.188v-.867c0-.125.058-.187.175-.187H17.5v-.985l-.633.539c-.117.1-.218.078-.3-.07q-.165-.329-.346-.639t-.369-.6q-.2.363-.41.7a5.5,5.5,0,0,1-.469.645.15.15,0,0,1-.246.023l-.75-.563a14.557,14.557,0,0,1-.281,2.508,8.9,8.9,0,0,1-.809,2.2.209.209,0,0,1-.164.118.187.187,0,0,1-.176-.082L11.7,68.812a.147.147,0,0,1-.023-.175,7.763,7.763,0,0,0,.369-1.026,10.5,10.5,0,0,0,.24-1.06,23.206,23.206,0,0,0,.176-3.282V60.023a.156.156,0,0,1,.176-.176H16.9v-.785a.155.155,0,0,1,.176-.175h1.289a.155.155,0,0,1,.176.175v.785h4.043c.125,0,.188.059.188.176v.926c0,.117-.063.176-.188.176Z"/>
      <path class="cls-19" d="M25.927,69.972c-.094,0-.229,0-.405-.011s-.4-.02-.662-.035a.18.18,0,0,1-.123-.047.152.152,0,0,1-.052-.117l-.047-.915a.165.165,0,0,1,.052-.152.228.228,0,0,1,.159-.058c.164.015.3.029.41.041s.191.017.246.017c.109,0,.176-.027.2-.082a1.762,1.762,0,0,0,.035-.492V66.48c-.109.024-.24.051-.392.082l-.51.106a.133.133,0,0,1-.152-.024.255.255,0,0,1-.071-.152l-.07-1.031c-.016-.1.031-.16.141-.176.148-.031.31-.065.486-.1s.365-.076.568-.123V62.531H24.72a.156.156,0,0,1-.176-.176v-.961a.155.155,0,0,1,.176-.175h1.019V59.355a.166.166,0,0,1,.188-.187h1.136c.118,0,.176.062.176.187v1.864h.879V59.625a.156.156,0,0,1,.176-.176h7.043c.125,0,.187.059.187.176v.937a.166.166,0,0,1-.187.188H29.618v2.918h5.871c.117,0,.176.062.176.187v.961a.156.156,0,0,1-.176.176H33.3a11,11,0,0,0,.457,1.359,12.292,12.292,0,0,0,.832-1.113.2.2,0,0,1,.123-.088.137.137,0,0,1,.135.041l.773.539a.214.214,0,0,1,.076.117.142.142,0,0,1-.029.129q-.3.423-.6.8t-.616.727a4.91,4.91,0,0,0,1.242,1.137.163.163,0,0,1,.071.222l-.422,1.02a.2.2,0,0,1-.111.111.15.15,0,0,1-.147-.018,4.832,4.832,0,0,1-.978-.732,6.512,6.512,0,0,1-.909-1.1,7.909,7.909,0,0,1-.82-1.488,10.908,10.908,0,0,1-.539-1.664h-.375v3.281q.3-.081.6-.164c.2-.055.4-.113.591-.176a.2.2,0,0,1,.17.03.2.2,0,0,1,.088.146l.07.891c.016.086-.027.14-.128.164q-.927.3-1.811.5t-1.752.316a.176.176,0,0,1-.141-.035.155.155,0,0,1-.058-.129l-.082-.926a.177.177,0,0,1,.164-.2c.14-.023.275-.045.4-.064l.416-.065V64.992H29.56a12.622,12.622,0,0,1-.293,2.473,7.773,7.773,0,0,1-.352,1.154,9.58,9.58,0,0,1-.516,1.107.235.235,0,0,1-.17.118.179.179,0,0,1-.169-.082l-.832-.985v.012a2.335,2.335,0,0,1-.018.316,1.52,1.52,0,0,1-.041.211,1.48,1.48,0,0,1-.141.352.52.52,0,0,1-.246.2.714.714,0,0,1-.176.064c-.054.012-.109.022-.164.03a1.1,1.1,0,0,1-.193.011ZM27.239,68v.34a1.285,1.285,0,0,0-.011.164v.105a5.852,5.852,0,0,0,.691-1.98c.062-.43.1-.7.105-.809-.086.031-.193.066-.322.105l-.463.141Zm0-3.305c.1-.039.223-.08.364-.123l.5-.158q.012-.2.012-.522V62.531h-.879Zm2.8-2.93c0-.125.059-.187.176-.187h4.805c.117,0,.175.062.175.187v.879c0,.125-.058.188-.175.188h-4.8c-.117,0-.176-.063-.176-.188Z"/>
      <path class="cls-19" d="M46.223,59.109c.125,0,.187.067.187.2v.3a1.852,1.852,0,0,1-.012.229h1.8c.125,0,.188.058.188.176v.855c0,.117-.063.176-.188.176h-1.9c-.008.078-.02.174-.035.287s-.036.244-.059.392h2.273a.155.155,0,0,1,.176.176v.856a.155.155,0,0,1-.176.175H47.031a4.41,4.41,0,0,0,.692.833,5.383,5.383,0,0,0,.925.691.153.153,0,0,1,.071.211L48.3,65.707a.18.18,0,0,1-.111.117.2.2,0,0,1-.159-.023q-.21-.129-.381-.247t-.345-.246v4.524a.156.156,0,0,1-.176.176H45.848c-.125,0-.188-.059-.188-.176v-.27H40.5v.27c0,.117-.063.176-.188.176H39.039a.156.156,0,0,1-.176-.176V65.308q-.175.129-.357.246t-.369.247a.194.194,0,0,1-.158.023.179.179,0,0,1-.112-.117l-.422-1.043a.153.153,0,0,1,.071-.211,3.966,3.966,0,0,0,1.523-1.524H37.68a.155.155,0,0,1-.176-.175V61.9a.155.155,0,0,1,.176-.176h1.828c.015-.085.033-.181.053-.287s.041-.236.064-.392H37.961c-.125,0-.188-.059-.188-.176v-.855c0-.118.063-.176.188-.176h1.781a1.852,1.852,0,0,0,.012-.229v-.3c0-.132.062-.2.187-.2h1.184c.117,0,.176.067.176.2v.3a1.852,1.852,0,0,1-.012.229H42.6a.155.155,0,0,1,.175.176v.855a.155.155,0,0,1-.175.176H41.16c-.023.156-.045.289-.064.4s-.037.2-.053.281H42.7c.125,0,.188.059.188.176v.856c0,.117-.063.175-.188.175h-1a12.513,12.513,0,0,1,1.078,1.043.148.148,0,0,1,.059.141.208.208,0,0,1-.094.141l-.609.433H43.7l-.4-.316a.17.17,0,0,1-.076-.158.2.2,0,0,1,.087-.159,4.052,4.052,0,0,0,.9-.96.244.244,0,0,0,.017-.047.1.1,0,0,1,.03-.047.453.453,0,0,1,.058-.071h-.855c-.125,0-.188-.058-.188-.175V61.9c0-.117.063-.176.188-.176h1.242v-.035q.024-.105.07-.644H43.562a.155.155,0,0,1-.175-.176v-.855a.155.155,0,0,1,.175-.176h1.29v-.147a2.021,2.021,0,0,1,.011-.2V59.3c0-.125.059-.188.176-.188Zm-4.676,5.578c-.164-.187-.342-.379-.533-.574s-.4-.4-.627-.609a6.894,6.894,0,0,1-.387.6q-.212.294-.469.586Zm4.113,1.149H40.5V66.6H45.66Zm0,2.6v-.8H40.5v.8Zm.973-3.75q-.27-.3-.51-.627a8.051,8.051,0,0,1-.451-.673,4.8,4.8,0,0,1-.961,1.3Z"/>
      <path class="cls-19" d="M51.319,60.082a.176.176,0,0,1,.188-.211q1.325,0,2.6-.053t2.532-.158q1.23-.094,2.168-.211t1.64-.258a.113.113,0,0,1,.129.012.241.241,0,0,1,.082.117l.258.961a.17.17,0,0,1-.018.147.177.177,0,0,1-.134.076q-.387.093-.78.158t-.791.111l.633.141a.185.185,0,0,1,.129.088.218.218,0,0,1,.012.158q-.129.351-.264.662t-.275.627h1.793c.125,0,.187.059.187.176v2.344c0,.117-.062.175-.187.175H59.851v.375a.183.183,0,0,1-.024.082,9,9,0,0,1-2.32,2.121q.833.294,1.74.516t1.916.375a.247.247,0,0,1,.147.1.173.173,0,0,1,.017.17l-.363.949c-.024.07-.086.105-.188.105a17.694,17.694,0,0,1-2.332-.474,18.905,18.905,0,0,1-2.226-.768.741.741,0,0,1-.141-.082l-.117-.047a18.241,18.241,0,0,1-4.641,1.36c-.109.015-.175-.02-.2-.106l-.363-.926a.184.184,0,0,1,.017-.175.244.244,0,0,1,.159-.106,16.093,16.093,0,0,0,3.48-.844q-.457-.281-.867-.574a7.515,7.515,0,0,1-.774-.633.188.188,0,0,1,0-.293l.879-.7H52.257a.155.155,0,0,1-.176-.176v-.246H50.862c-.125,0-.187-.058-.187-.175V62.625c0-.117.062-.176.187-.176H52.9l-.281-.633c-.094-.211-.2-.418-.3-.621h-.7a.164.164,0,0,1-.175-.164Zm.914,3.539v.715h7.618v-.715Zm3.727,3.445a8.7,8.7,0,0,0,1.172-.721,7.172,7.172,0,0,0,.9-.779h-4.3A8.506,8.506,0,0,0,55.96,67.066Zm-.3-4.617c-.093-.227-.193-.449-.3-.668s-.212-.441-.322-.668l-1.265.035q.1.211.252.533l.345.768Zm2.274,0q.2-.434.369-.832c.113-.266.217-.523.31-.773q-.28.034-1.6.14H56.9a1.256,1.256,0,0,0-.152.012,1.578,1.578,0,0,0-.258.035q.2.422.358.768t.275.65Z"/>
      <path class="cls-19" d="M66.383,69.867a.156.156,0,0,1-.176.176H65.023c-.125,0-.187-.059-.187-.176V64.84a9.039,9.039,0,0,1-.6.925.211.211,0,0,1-.228.1.244.244,0,0,1-.182-.193l-.363-1.313a.112.112,0,0,1,.035-.129,11.256,11.256,0,0,0,1.254-2.3,14.8,14.8,0,0,0,.762-2.625c.023-.125.093-.175.211-.152l1.113.2c.125.024.18.094.164.211q-.117.633-.27,1.219t-.351,1.16Zm5.824-9.012v-1.5c0-.125.059-.187.176-.187h1.242c.117,0,.176.062.176.187v1.5h.844a.155.155,0,0,1,.175.176v1c0,.125-.058.188-.175.188H73.8v5.812q0,.212-.006.4c0,.125-.01.253-.018.386a1.908,1.908,0,0,1-.093.528,1.006,1.006,0,0,1-.2.351.9.9,0,0,1-.351.188,1.941,1.941,0,0,1-.539.093,2.558,2.558,0,0,1-.293.012h-.5q-.246,0-.727-.017t-1.183-.041a.2.2,0,0,1-.123-.041.136.136,0,0,1-.053-.112l-.059-1a.158.158,0,0,1,.047-.14.2.2,0,0,1,.153-.059c.421.016.771.027,1.048.035s.487.012.627.012a1.177,1.177,0,0,0,.586-.082c.063-.047.094-.207.094-.481V62.215h-5c-.117,0-.176-.063-.176-.188v-1a.156.156,0,0,1,.176-.176Zm-3.539,2.356a.118.118,0,0,1,.129-.035.182.182,0,0,1,.105.082,30.99,30.99,0,0,1,1.875,2.976.163.163,0,0,1-.07.235l-.949.539a.155.155,0,0,1-.141.023.177.177,0,0,1-.105-.094q-.4-.714-.844-1.429t-.961-1.442a.137.137,0,0,1-.041-.135.2.2,0,0,1,.088-.123Z"/>
    </g>
  </g>
</svg>
