<svg xmlns="http://www.w3.org/2000/svg" viewBox="0 0 71.938 69.809">
  <defs>
    <style>
      .a {
        fill: none;
        stroke: #727272;
        stroke-linecap: round;
        stroke-linejoin: round;
        stroke-width: 3.5px;
      }

      .b {
        fill: #00a26a;
      }
    </style>
  </defs>
  <g>
    <polyline class="a" points="8.501 27.555 8.501 55.513 1.75 55.513 14.146 68.059 26.542 55.513 19.791 55.513 19.791 46.156"/>
    <polyline class="a" points="63.437 42.254 63.437 14.296 70.188 14.296 57.792 1.75 45.396 14.296 52.147 14.296 52.147 23.652"/>
  </g>
  <path class="b" d="M24.439,26.272a4.964,4.964,0,0,1,4.15-1.7,4.967,4.967,0,0,1,4.15,1.7,7.136,7.136,0,0,1,1.34,4.542,7.13,7.13,0,0,1-1.34,4.542,4.957,4.957,0,0,1-4.15,1.7,4.957,4.957,0,0,1-4.15-1.7,7.128,7.128,0,0,1-1.34-4.542A7.136,7.136,0,0,1,24.439,26.272Zm2.646,7.239a1.645,1.645,0,0,0,3.023,0,6.779,6.779,0,0,0,.441-2.7,6.622,6.622,0,0,0-.457-2.663,1.613,1.613,0,0,0-3.007,0,6.622,6.622,0,0,0-.457,2.663A6.575,6.575,0,0,0,27.085,33.511Zm14.574-8.872a2.689,2.689,0,0,1,.523-.654,1.094,1.094,0,0,1,.752-.261,1.291,1.291,0,0,1,.9.343,1.024,1.024,0,0,1,.375.768,2.411,2.411,0,0,1-.359,1.111L32.085,48.166a1.993,1.993,0,0,1-.506.653,1.146,1.146,0,0,1-.768.262,1.282,1.282,0,0,1-.9-.343,1.027,1.027,0,0,1-.376-.768,2.424,2.424,0,0,1,.36-1.111Zm-.686,12.809a4.961,4.961,0,0,1,4.15-1.7,4.96,4.96,0,0,1,4.15,1.7,7.13,7.13,0,0,1,1.34,4.542,7.13,7.13,0,0,1-1.34,4.542,4.96,4.96,0,0,1-4.15,1.7,4.961,4.961,0,0,1-4.15-1.7,7.136,7.136,0,0,1-1.34-4.542A7.142,7.142,0,0,1,40.973,37.448Zm2.647,7.238a1.644,1.644,0,0,0,3.023,0,6.779,6.779,0,0,0,.441-2.7,6.589,6.589,0,0,0-.458-2.663,1.612,1.612,0,0,0-3.006,0,6.622,6.622,0,0,0-.457,2.663A6.575,6.575,0,0,0,43.62,44.686Z"/>
</svg>
