<svg xmlns="http://www.w3.org/2000/svg" viewBox="0 0 88.684 66.006">
  <defs>
    <style>
      .a, .b, .c, .e {
        fill: none;
      }

      .a {
        stroke: #727272;
        stroke-linejoin: round;
      }

      .a, .b, .c {
        stroke-linecap: round;
      }

      .a, .b {
        stroke-width: 3.5px;
      }

      .b, .c, .e {
        stroke: #00a26a;
        stroke-miterlimit: 10;
      }

      .c, .e {
        stroke-width: 2.5px;
      }

      .d {
        fill: #00a26a;
      }
    </style>
  </defs>
  <g>
    <g>
      <line class="a" x1="11.37" y1="12.631" x2="86.934" y2="12.631"/>
      <line class="a" x1="11.37" y1="23.963" x2="86.934" y2="23.963"/>
      <line class="a" x1="57.389" y1="32.574" x2="63.132" y2="32.574"/>
      <line class="a" x1="71.023" y1="32.574" x2="76.766" y2="32.574"/>
      <path class="a" d="M11.37,35.68V6.4A4.662,4.662,0,0,1,16.018,1.75H82.286A4.662,4.662,0,0,1,86.934,6.4v42.39a4.661,4.661,0,0,1-4.648,4.648H30.716"/>
    </g>
    <line class="b" x1="41.244" y1="34.764" x2="16.496" y2="34.764"/>
    <path class="b" d="M37.2,39.723l4.119-3.809a1.568,1.568,0,0,0,0-2.3L37.2,29.805"/>
    <polyline class="c" points="16.496 41.518 16.496 49.51 22.719 53.418"/>
    <circle class="d" cx="16.496" cy="49.51" r="2.722"/>
    <line class="e" x1="16.496" y1="34.764" x2="16.496" y2="38.319"/>
    <line class="e" x1="1.75" y1="49.51" x2="5.306" y2="49.51"/>
    <line class="e" x1="16.496" y1="64.256" x2="16.496" y2="60.701"/>
    <line class="e" x1="31.242" y1="49.51" x2="27.687" y2="49.51"/>
    <path class="b" d="M30.074,43.748A14.749,14.749,0,1,1,16.5,34.764"/>
  </g>
</svg>
