<svg xmlns="http://www.w3.org/2000/svg" viewBox="0 0 100.692 61.782">
  <defs>
    <style>
      .a, .b, .c, .d {
        fill: none;
        stroke-linecap: round;
      }

      .a, .b, .c {
        stroke: #727272;
      }

      .a, .c, .d {
        stroke-linejoin: round;
      }

      .a, .b, .d {
        stroke-width: 3.5px;
      }

      .b {
        stroke-miterlimit: 10;
      }

      .c {
        stroke-width: 2.5px;
      }

      .d {
        stroke: #00a26a;
      }
    </style>
  </defs>
  <g>
    <path class="a" d="M42.966,20.844a2.919,2.919,0,0,0-3.239-2.774c1.6-5.5,1.5-11.4-3.725-12.586,0-3.234-4.4-3.989-9.78-3.665-11.644.7-13.337,7.266-13.506,16.251a2.919,2.919,0,0,0-3.239,2.774,4.353,4.353,0,0,0,4.085,5.315c1.514,6.184,5.236,11.126,12.659,11.126,6.913,0,10.853-4.935,12.534-11.112A4.32,4.32,0,0,0,42.966,20.844Z"/>
    <path class="b" d="M12.513,40.17a25.607,25.607,0,0,0-6.655,6.156C3.1,49.869,1.75,57.042,1.75,57.042"/>
    <path class="b" d="M38.328,40.17A24.255,24.255,0,0,1,43.71,44.8"/>
    <path class="c" d="M23.107,24.245a5.63,5.63,0,0,0-3.854,5.2"/>
    <path class="c" d="M12.716,18.07s3.713-.5,4.467-2.765a11.007,11.007,0,0,0,.419-3.543,18.845,18.845,0,0,0,8.62,2.389,27.35,27.35,0,0,0,9.306-2.389s.854,6.275,4.2,6.308"/>
    <path class="c" d="M34.02,8.44s-3.312,2.664-9.26,2.3"/>
    <path class="c" d="M30.128,6.67a17.642,17.642,0,0,1-5.689.426"/>
    <path class="a" d="M61.6,23.718a2.672,2.672,0,0,1,2.964-2.54C60.375,18.291,62.2,9.991,67.1,10.389c0-2.961,4.066-6.371,10.49-5.575,10.6,1.314,13.288,7.548,11.7,16.364a2.672,2.672,0,0,1,2.965,2.54,3.985,3.985,0,0,1-3.739,4.865c-1.387,5.661-4.794,10.186-11.589,10.186-6.328,0-9.935-4.518-11.474-10.173A3.954,3.954,0,0,1,61.6,23.718Z"/>
    <path class="b" d="M89.09,42.41a23.428,23.428,0,0,1,6.092,5.635c2.526,3.243,3.76,9.81,3.76,9.81"/>
    <path class="b" d="M65.236,42.41a23.428,23.428,0,0,0-6.092,5.635,11.667,11.667,0,0,0-1.093,1.732"/>
    <path class="c" d="M74.3,26.063a5.155,5.155,0,0,0-3.528,4.757"/>
    <path class="c" d="M89.289,21.178a17.1,17.1,0,0,1-11.7,0C72.96,19.369,70.069,14.5,70.069,14.5s-2.445,6.647-5.507,6.677"/>
    <path class="c" d="M73.35,13.172s3.032,2.44,8.477,2.108"/>
    <path class="c" d="M76.913,11.553a16.152,16.152,0,0,0,5.208.389"/>
    <path class="a" d="M91.329,27.268s.642,5.821,2.534,6.816c0,0-5.721,2.065-9.183,1.779"/>
    <path class="a" d="M62.523,27.268s-.643,5.821-2.535,6.816c0,0,5.722,2.065,9.183,1.779"/>
    <rect class="d" x="43.709" y="38.189" width="14.342" height="21.843"/>
  </g>
</svg>
