<?xml version="1.0" encoding="utf-8"?>
<!-- Generator: Adobe Illustrator 24.3.0, SVG Export Plug-In . SVG Version: 6.00 Build 0)  -->
<svg version="1.1" id="レイヤー_1" xmlns="http://www.w3.org/2000/svg" xmlns:xlink="http://www.w3.org/1999/xlink" x="0px"
	 y="0px" viewBox="0 0 63.7 51.7" style="enable-background:new 0 0 63.7 51.7;" xml:space="preserve">
<style type="text/css">
	.st0{fill:none;stroke:#00A26A;stroke-width:3.5;stroke-linecap:round;stroke-miterlimit:10;}
	.st1{fill:none;stroke:#727272;stroke-width:3.5;stroke-linecap:round;stroke-miterlimit:10;}
	.st2{fill:none;stroke:#727272;stroke-width:3.5;stroke-linecap:round;stroke-linejoin:round;stroke-miterlimit:10;}
	.st3{fill:#00A26A;}
</style>
<g>
	<g>
		<path class="st0" d="M47.4,32.1h4.1c1.9,0,3.4,1.5,3.4,3.4v0c0,1.9-1.5,3.4-3.4,3.4h-4.1"/>
		<line class="st0" x1="46.9" y1="32.1" x2="46.9" y2="43.4"/>
	</g>
	<circle class="st1" cx="49.7" cy="37.8" r="12.2"/>
</g>
<g id="icon_data">
	<path class="st0" d="M20.8,10.8c0,0,0-9,8.7-9c4.9,0,4.8,9,0,9"/>
	<path class="st0" d="M20.8,10.8c0,0,0-9-8.7-9c-4.9,0-5,9,0,9"/>
	<polyline class="st2" points="31.2,40.8 4.8,40.8 4.8,20.7 	"/>
	<polyline class="st2" points="26.8,10.8 39.8,10.8 39.8,20.7 1.8,20.7 1.8,10.8 39.4,10.8 	"/>
	<line class="st0" x1="20.8" y1="40.8" x2="20.8" y2="8"/>
	<line class="st2" x1="36.5" y1="20.7" x2="36.5" y2="25.6"/>
</g>
<path class="st3" d="M52.5,6.7c2.3,1,3.1,2,3.7,5.3c0.1,0.4,0.4,0.4,0.5,0c0.7-3.3,1.5-4.3,3.9-5.2c0.3-0.1,0.3-0.6,0-0.7
	c-2.3-1-3.1-2-3.7-5.3c-0.1-0.4-0.4-0.4-0.5,0C55.7,4,54.9,5.1,52.5,6C52.3,6.1,52.3,6.6,52.5,6.7z"/>
<path class="st3" d="M47.2,13.7c1.7,0.7,2.2,1.4,2.6,3.8c0,0.3,0.3,0.3,0.4,0c0.5-2.3,1.1-3.1,2.7-3.7c0.2-0.1,0.2-0.4,0-0.5
	c-1.7-0.7-2.2-1.4-2.6-3.8c0-0.3-0.3-0.3-0.4,0c-0.5,2.3-1.1,3.1-2.7,3.7C47.1,13.2,47.1,13.6,47.2,13.7z"/>
<g>
</g>
<g>
</g>
<g>
</g>
<g>
</g>
<g>
</g>
<g>
</g>
<g>
</g>
<g>
</g>
<g>
</g>
<g>
</g>
<g>
</g>
<g>
</g>
<g>
</g>
<g>
</g>
<g>
</g>
</svg>
