<svg xmlns="http://www.w3.org/2000/svg" viewBox="0 0 99.01 69.372">
  <defs>
    <style>
      .a, .b, .c, .d, .f {
        fill: none;
        stroke-linecap: round;
        stroke-linejoin: round;
      }

      .a, .c {
        stroke: #727272;
      }

      .a, .b {
        stroke-width: 3.5px;
      }

      .b, .d, .f {
        stroke: #00a26a;
      }

      .c, .f {
        stroke-width: 2.5px;
      }

      .d {
        stroke-width: 6px;
      }

      .e {
        fill: #00a26a;
      }

      .g {
        fill: #727272;
      }
    </style>
  </defs>
  <g>
    <polyline class="a" points="84.004 52.09 82.232 67.622 60.446 65.136 62.307 48.824"/>
    <path class="b" d="M84.585,44.866l.82-7.178-4.821-.55-.349,3.053L75.5,35.1a1.6,1.6,0,0,0-2.072-.237L54.458,47.673a.535.535,0,0,0-.143.743l2.394,3.545a.534.534,0,0,0,.742.143l15.176-10.25a1.6,1.6,0,0,1,2.072.236L87.175,55.5a.535.535,0,0,0,.756.027l3.131-2.914a.535.535,0,0,0,.027-.756Z"/>
    <rect class="c" x="68.724" y="56.834" width="6.315" height="9.575" transform="translate(7.452 -7.754) rotate(6.511)"/>
    <line class="b" x1="4.937" y1="51.624" x2="6.378" y2="61.439"/>
    <line class="d" x1="6.378" y1="61.439" x2="6.785" y2="64.207"/>
    <polygon class="a" points="46.432 44.431 25.257 55.65 1.75 50.993 22.925 39.774 46.432 44.431"/>
    <path class="a" d="M11.328,52.89l1.693,11.527c.286,1.95,6.445,2.661,13.756,1.587s13.007-3.525,12.72-5.475L37.8,49"/>
    <g>
      <path class="e" d="M32.862,12.173a46.225,46.225,0,0,0-4.889.391c-.531.171-.7.75-.628,1.637s.326,1.586.945,1.819c.553.207,2.988.358,3.841-.47S32.862,12.173,32.862,12.173Z"/>
      <circle class="f" cx="36.376" cy="23.52" r="2.598"/>
      <path class="g" d="M32.766,30.555H38.6a0,0,0,0,1,0,0v3.571a1.657,1.657,0,0,1-1.657,1.657H34.423a1.657,1.657,0,0,1-1.657-1.657V30.555A0,0,0,0,1,32.766,30.555Z" transform="matrix(0.997, -0.08, 0.08, 0.997, -2.532, 2.952)"/>
      <path class="e" d="M60.4,9.969a46.44,46.44,0,0,1,4.889-.391c.551.084.81.63.881,1.517s-.071,1.617-.644,1.945c-.514.293-2.893.83-3.867.148S60.4,9.969,60.4,9.969Z"/>
      <path class="a" d="M45.9,1.947c5.592-.448,10.78-.095,12.249.683s1.856,2.409,1.968,3.808l.408,5.108A1.887,1.887,0,0,1,58.8,13.579l-11.887.951-11.888.951a1.888,1.888,0,0,1-2.032-1.731l-.409-5.109c-.112-1.4.01-3.071,1.337-4.072S40.309,2.394,45.9,1.947Z"/>
      <path class="a" d="M60.526,11.546s2.29,2.375,3.972,4.543c1.2,1.551,1.179,7.062,1.068,10.074a2.252,2.252,0,0,1-2.076,2.159l-15.38,1.23L32.73,30.783a2.254,2.254,0,0,1-2.394-1.8c-.588-2.955-1.488-8.392-.547-10.115,1.316-2.407,3.2-5.116,3.2-5.116"/>
      <circle class="f" cx="58.735" cy="21.731" r="2.598"/>
      <path class="g" d="M59.7,28.533h2.517a1.657,1.657,0,0,1,1.657,1.657v3.571a0,0,0,0,1,0,0H58.039a0,0,0,0,1,0,0V30.19A1.657,1.657,0,0,1,59.7,28.533Z" transform="translate(124.2 57.333) rotate(175.425)"/>
    </g>
    <path class="e" d="M96.741,39.648c-2.441.673-3.32,1.645-4.365,4.828-.114.348-.473.307-.506-.058-.3-3.336-.938-4.482-3.165-5.687a.426.426,0,0,1,.081-.708c2.441-.672,3.32-1.645,4.365-4.828.114-.348.473-.307.506.058.3,3.336.938,4.482,3.165,5.688A.425.425,0,0,1,96.741,39.648Z"/>
    <path class="e" d="M98.844,49.035c-1.727.476-2.349,1.164-3.088,3.415-.081.246-.335.217-.358-.041-.213-2.36-.664-3.17-2.239-4.023a.3.3,0,0,1,.057-.5c1.727-.476,2.349-1.164,3.088-3.416.081-.246.335-.217.358.041.213,2.36.664,3.171,2.239,4.024A.3.3,0,0,1,98.844,49.035Z"/>
  </g>
</svg>
