<svg xmlns="http://www.w3.org/2000/svg" viewBox="0 0 76.823 72.029">
  <defs>
    <style>
      .a, .b {
        fill: none;
        stroke-linecap: round;
        stroke-width: 3.5px;
      }

      .a {
        stroke: #727272;
        stroke-linejoin: round;
      }

      .b {
        stroke: #00a26a;
        stroke-miterlimit: 10;
      }
    </style>
  </defs>
  <g>
    <path class="a" d="M9.347,70.279l6.482-6.013H49.8c6.243,0,20.525-11.473,23.159-13.135a3.958,3.958,0,0,0,1.62-5.46c-.709-1.542-3.342-2.611-7.5.475S53.51,54.1,49.357,54.1H31.925"/>
    <path class="a" d="M1.75,63s2.56-3.111,6.685-7.952c3.271-3.839,5.942-8.868,8-9.97,4.66-2.492,16.124-.105,21.189-.105,3.568,0,8.534-.775,10.819,1.292,3,2.715,2.836,7.833-3.95,7.833"/>
    <path class="b" d="M33.349,34.808a4.1,4.1,0,0,0,5.176,0c3.816-3.1,10.883-9.134,14.438-13.982,5.017-6.841,3.369-18.032-5.916-19.011A10.944,10.944,0,0,0,36.518,7.3a.681.681,0,0,1-1.162,0A10.946,10.946,0,0,0,24.827,1.815c-9.285.979-10.933,12.17-5.916,19.011C22.466,25.674,29.533,31.705,33.349,34.808Z"/>
  </g>
</svg>
