<svg xmlns="http://www.w3.org/2000/svg" viewBox="0 0 99.348 62.295">
  <defs>
    <style>
      .a, .b, .c, .d {
        fill: none;
        stroke-linecap: round;
      }

      .a, .b, .c {
        stroke: #727272;
      }

      .a, .c {
        stroke-linejoin: round;
      }

      .a, .b, .d {
        stroke-width: 3.5px;
      }

      .b, .d {
        stroke-miterlimit: 10;
      }

      .c {
        stroke-width: 2.5px;
      }

      .d {
        stroke: #00a26a;
      }
    </style>
  </defs>
  <g>
    <g>
      <path class="a" d="M46.142,21.985a3.094,3.094,0,0,0-3.432-2.94c1.7-5.828,1.588-12.08-3.948-13.337,0-3.428-4.66-4.228-10.365-3.885-12.34.742-14.135,7.7-14.314,17.222a3.093,3.093,0,0,0-3.432,2.94,4.613,4.613,0,0,0,4.329,5.633C16.585,34.172,20.529,39.41,28.4,39.41c7.326,0,11.5-5.23,13.283-11.777C44.124,27.532,46.7,25.744,46.142,21.985Z"/>
      <path class="b" d="M13.157,42.468A27.115,27.115,0,0,0,6.1,48.991C3.179,52.746,1.75,60.348,1.75,60.348"/>
      <path class="b" d="M43.636,42.468a27.122,27.122,0,0,1,7.053,6.523c2.925,3.755,4.354,11.357,4.354,11.357"/>
    </g>
    <path class="c" d="M25.1,25.59s-4.084,1.275-4.084,5.507"/>
    <rect class="d" x="67.6" y="23.341" width="25.71" height="34.547" rx="2" transform="translate(17.055 -23.44) rotate(18.509)"/>
    <path class="c" d="M14.083,19.045s3.935-.532,4.734-2.929a11.662,11.662,0,0,0,.444-3.755A19.969,19.969,0,0,0,28.4,14.892c4.659-.093,9.863-2.531,9.863-2.531s.905,6.65,4.45,6.684"/>
    <path class="c" d="M36.662,8.84s-3.511,2.824-9.815,2.439"/>
    <path class="c" d="M32.536,6.965a18.725,18.725,0,0,1-6.029.451"/>
  </g>
</svg>
