<svg xmlns="http://www.w3.org/2000/svg" viewBox="0 0 81.48 68.596">
  <defs>
    <style>
      .a, .b, .c {
        fill: none;
        stroke-linecap: round;
        stroke-linejoin: round;
      }

      .a, .b {
        stroke: #727272;
      }

      .a, .c {
        stroke-width: 3.5px;
      }

      .b {
        stroke-width: 2.5px;
      }

      .c {
        stroke: #00a26a;
      }
    </style>
  </defs>
  <g>
    <g>
      <polyline class="a" points="66.484 38.082 66.484 66.846 26.139 66.846 26.139 36.639"/>
      <path class="a" d="M42.628,22.533l.922-.789a2.951,2.951,0,0,1,3.837,0l25.6,21.905a.984.984,0,0,0,1.387-.108l5.116-5.98a.984.984,0,0,0-.108-1.387L66.039,24.755V11.463H57.111v5.654L47.387,8.8a2.953,2.953,0,0,0-3.837,0l-5.436,4.651"/>
      <path class="a" d="M13.937,40.476l2.622,3.065a.984.984,0,0,0,1.387.108l9.7-8.3"/>
      <line class="a" x1="18.965" y1="29.831" x2="14.387" y2="33.747"/>
      <rect class="b" x="40.501" y="44.289" width="11.62" height="17.618"/>
      <rect class="b" x="36.225" y="61.906" width="20.172" height="4.94"/>
    </g>
    <path class="c" d="M30.166,35.543c-6.553,0-11.8-3.716-12.4-9.525-.527-5.069.572-8.97,5.428-13.441,6.295-5.795,6.2-10.827,6.2-10.827,6.16,7.217,2.832,16.9,2.832,16.9,2.757-.932,4.916-6.07,4.916-6.07,4.758,4,5.954,8.372,5.428,13.441-.6,5.809-5.852,9.525-12.4,9.525"/>
    <path class="c" d="M9.836,25.628c.108-.694-.847-1.071-1.424-.671-2,1.388-5.393,4.234-6.333,8.088-1.239,5.08,1.178,8.412,4.655,9.21,3.994.916,8.8-.751,8.352-6.177C14.711,31.564,8.938,31.381,9.836,25.628Z"/>
  </g>
</svg>
