<svg xmlns="http://www.w3.org/2000/svg" viewBox="0 0 110.388 62.196">
  <defs>
    <style>
      .a, .f {
        fill: none;
      }

      .a, .d, .e, .f {
        stroke: #727272;
        stroke-linecap: round;
      }

      .a, .d, .e {
        stroke-linejoin: round;
      }

      .a, .e, .f {
        stroke-width: 3.5px;
      }

      .b {
        fill: #727272;
      }

      .c {
        fill: #00a26a;
      }

      .d, .e {
        fill: #fff;
      }

      .d {
        stroke-width: 2.5px;
      }

      .f {
        stroke-miterlimit: 10;
      }
    </style>
  </defs>
  <g>
    <g>
      <path class="a" d="M47.274,13.8a5.986,5.986,0,0,1,4.409-1.942h50.955a6.018,6.018,0,0,1,6,6V54.446a6.018,6.018,0,0,1-6,6H51.683a6.018,6.018,0,0,1-6-6V42.538"/>
      <g>
        <circle class="b" cx="100.519" cy="26.662" r="2.06"/>
        <circle class="b" cx="84.988" cy="26.662" r="2.06"/>
        <circle class="b" cx="92.754" cy="26.662" r="2.06"/>
      </g>
      <g>
        <circle class="c" cx="53.925" cy="33.217" r="2.06"/>
        <circle class="b" cx="61.691" cy="33.217" r="2.06"/>
        <circle class="b" cx="69.457" cy="33.217" r="2.06"/>
        <circle class="b" cx="77.222" cy="33.217" r="2.06"/>
        <circle class="b" cx="100.519" cy="33.217" r="2.06"/>
        <circle class="b" cx="84.988" cy="33.217" r="2.06"/>
        <circle class="b" cx="92.754" cy="33.217" r="2.06"/>
      </g>
      <g>
        <circle class="c" cx="53.925" cy="39.772" r="2.06"/>
        <circle class="b" cx="61.691" cy="39.772" r="2.06"/>
        <circle class="b" cx="69.457" cy="39.772" r="2.06"/>
        <circle class="b" cx="77.222" cy="39.772" r="2.06"/>
        <circle class="b" cx="100.519" cy="39.772" r="2.06"/>
        <circle class="b" cx="84.988" cy="39.772" r="2.06"/>
        <circle class="b" cx="92.754" cy="39.772" r="2.06"/>
      </g>
      <g>
        <circle class="c" cx="53.925" cy="46.327" r="2.06"/>
        <circle class="b" cx="61.691" cy="46.327" r="2.06"/>
        <circle class="b" cx="69.457" cy="46.327" r="2.06"/>
        <circle class="b" cx="77.222" cy="46.327" r="2.06"/>
        <circle class="b" cx="100.519" cy="46.327" r="2.06"/>
        <circle class="b" cx="84.988" cy="46.327" r="2.06"/>
        <circle class="b" cx="92.754" cy="46.327" r="2.06"/>
      </g>
      <g>
        <circle class="c" cx="53.925" cy="52.882" r="2.06"/>
        <circle class="b" cx="61.691" cy="52.882" r="2.06"/>
        <circle class="b" cx="69.457" cy="52.882" r="2.06"/>
        <circle class="b" cx="77.222" cy="52.882" r="2.06"/>
        <circle class="b" cx="84.988" cy="52.882" r="2.06"/>
        <circle class="b" cx="92.754" cy="52.882" r="2.06"/>
      </g>
      <line class="d" x1="49.488" y1="20.115" x2="108.638" y2="20.115"/>
      <g>
        <line class="e" x1="57.693" y1="15.667" x2="57.693" y2="7.852"/>
        <line class="e" x1="96.628" y1="15.667" x2="96.628" y2="7.852"/>
      </g>
    </g>
    <path class="f" d="M25.756,1.75c13.259,0,24.007,9.692,24.007,21.647a20,20,0,0,1-3.595,11.392,1.857,1.857,0,0,0-.073,1.974l3.021,5.287a.626.626,0,0,1-.641.929l-8.868-1.4a1.89,1.89,0,0,0-1.22.226,25.844,25.844,0,0,1-12.631,3.24C12.5,45.045,1.75,35.353,1.75,23.4S12.5,1.75,25.756,1.75Z"/>
    <g>
      <path class="c" d="M17.179,22.11A6.184,6.184,0,0,1,19,22.79a4.039,4.039,0,0,1,1.16.99,3.56,3.56,0,0,1,.6,1.17,4.671,4.671,0,0,1,.18,1.3,4.062,4.062,0,0,1-1.521,3.28,6.731,6.731,0,0,1-4.4,1.26,9.553,9.553,0,0,1-2.631-.33,5.972,5.972,0,0,1-1.9-.88,4.023,4.023,0,0,1-1.12-1.18A2.451,2.451,0,0,1,9,27.15a1.311,1.311,0,0,1,.39-.981,1.365,1.365,0,0,1,.99-.379,1.289,1.289,0,0,1,.811.24,4.248,4.248,0,0,1,.709.76,7.487,7.487,0,0,0,.51.629,2.854,2.854,0,0,0,.58.471,3.215,3.215,0,0,0,.851.36,4.414,4.414,0,0,0,1.18.14,3.03,3.03,0,0,0,1.929-.56,1.665,1.665,0,0,0,.71-1.34,1.441,1.441,0,0,0-.309-.9,1.959,1.959,0,0,0-1.09-.6l-3.7-.941a7,7,0,0,1-1.77-.7,3.6,3.6,0,0,1-1.09-.94,3.079,3.079,0,0,1-.519-1.08,4.993,4.993,0,0,1-.141-1.22,3.893,3.893,0,0,1,.49-2,4.016,4.016,0,0,1,1.311-1.37,5.961,5.961,0,0,1,1.84-.78,8.815,8.815,0,0,1,2.1-.25,8.014,8.014,0,0,1,1.94.25,7.545,7.545,0,0,1,1.83.709,4.329,4.329,0,0,1,1.32,1.081,2.1,2.1,0,0,1,.491,1.32,1.149,1.149,0,0,1-.441.95,1.651,1.651,0,0,1-1.059.35,1.18,1.18,0,0,1-.691-.19,3.711,3.711,0,0,1-.63-.61,4.946,4.946,0,0,0-1.189-.99,3.661,3.661,0,0,0-1.791-.35,2.82,2.82,0,0,0-1.739.47,1.47,1.47,0,0,0-.621,1.23,1.062,1.062,0,0,0,.6.989,6.474,6.474,0,0,0,1.641.571Z"/>
      <path class="c" d="M31.679,29.25a1.6,1.6,0,0,1-.33,1.07,1.453,1.453,0,0,1-1.981,0,1.6,1.6,0,0,1-.33-1.07v-.38H29a4.859,4.859,0,0,1-1.52,1.36,4.086,4.086,0,0,1-2.02.48,4.8,4.8,0,0,1-1.349-.19,3.166,3.166,0,0,1-1.18-.641,3.06,3.06,0,0,1-.84-1.2,4.726,4.726,0,0,1-.311-1.81V21.19a1.613,1.613,0,0,1,.331-1.061,1.389,1.389,0,0,1,1.129-.4,1.393,1.393,0,0,1,1.13.4,1.613,1.613,0,0,1,.33,1.061v5.1a2.212,2.212,0,0,0,.46,1.469,1.694,1.694,0,0,0,1.38.551,2.219,2.219,0,0,0,1.531-.63,2.157,2.157,0,0,0,.69-1.671V21.19a1.613,1.613,0,0,1,.33-1.061,1.8,1.8,0,0,1,2.26,0,1.618,1.618,0,0,1,.33,1.061Z"/>
      <path class="c" d="M32.8,21.19a1.6,1.6,0,0,1,.33-1.07,1.453,1.453,0,0,1,1.981,0,1.609,1.609,0,0,1,.33,1.07v.38h.039a5.123,5.123,0,0,1,1.531-1.36,4.018,4.018,0,0,1,2.01-.48,4.837,4.837,0,0,1,1.349.189,3.181,3.181,0,0,1,1.18.641,3.077,3.077,0,0,1,.84,1.2,4.732,4.732,0,0,1,.31,1.811v5.68a1.606,1.606,0,0,1-.33,1.06,1.795,1.795,0,0,1-2.259,0,1.607,1.607,0,0,1-.331-1.06v-5.1a2.226,2.226,0,0,0-.459-1.47,1.7,1.7,0,0,0-1.38-.551,2.219,2.219,0,0,0-1.531.63,2.157,2.157,0,0,0-.69,1.671v4.82a1.606,1.606,0,0,1-.33,1.06,1.8,1.8,0,0,1-2.26,0,1.612,1.612,0,0,1-.33-1.06Z"/>
    </g>
  </g>
</svg>
