<svg id="レイヤー_1" data-name="レイヤー 1" xmlns="http://www.w3.org/2000/svg" xmlns:xlink="http://www.w3.org/1999/xlink" viewBox="0 0 87.414 64.755">
  <defs>
    <style>
      .cls-1 {
        fill: none;
      }

      .cls-2 {
        fill: #00469b;
      }

      .cls-3 {
        clip-path: url(#clip-path);
      }

      .cls-4 {
        fill: url(#名称未設定グラデーション_5);
      }

      .cls-5 {
        clip-path: url(#clip-path-2);
      }

      .cls-6 {
        fill: url(#名称未設定グラデーション_2);
      }

      .cls-7 {
        clip-path: url(#clip-path-3);
      }

      .cls-8 {
        fill: url(#名称未設定グラデーション_3);
      }

      .cls-9 {
        clip-path: url(#clip-path-4);
      }

      .cls-10 {
        fill: url(#名称未設定グラデーション_4);
      }

      .cls-11 {
        clip-path: url(#clip-path-5);
      }

      .cls-12 {
        fill: url(#名称未設定グラデーション_8);
      }

      .cls-13 {
        clip-path: url(#clip-path-6);
      }

      .cls-14 {
        fill: url(#名称未設定グラデーション_8-2);
      }

      .cls-15 {
        clip-path: url(#clip-path-7);
      }

      .cls-16 {
        fill: url(#名称未設定グラデーション_8-3);
      }

      .cls-17 {
        clip-path: url(#clip-path-8);
      }

      .cls-18 {
        fill: url(#名称未設定グラデーション_8-4);
      }
    </style>
    <clipPath id="clip-path">
      <path class="cls-1" d="M24.639.01A14.482,14.482,0,0,0,18.25,1.547a17.967,17.967,0,0,0-5.538,4.294s4.705.6,6.059.779L18.8,6.6a19.735,19.735,0,0,1,6.069-4.871A15.26,15.26,0,0,1,31.751.01.135.135,0,0,1,31.8,0Z"/>
    </clipPath>
    <linearGradient id="名称未設定グラデーション_5" data-name="名称未設定グラデーション 5" x1="-592.485" y1="-344.68" x2="-592.221" y2="-344.68" gradientTransform="matrix(27.62, 0, 0, -27.62, 16383.276, -9516.836)" gradientUnits="userSpaceOnUse">
      <stop offset="0" stop-color="#0068b6"/>
      <stop offset="0.2" stop-color="#0068b6"/>
      <stop offset="0.7" stop-color="#0091d7"/>
      <stop offset="0.736" stop-color="#0995d9"/>
      <stop offset="0.795" stop-color="#21a0dd"/>
      <stop offset="0.87" stop-color="#49b2e5"/>
      <stop offset="0.956" stop-color="#80caef"/>
      <stop offset="1" stop-color="#9ed8f5"/>
    </linearGradient>
    <clipPath id="clip-path-2">
      <path class="cls-1" d="M35.728,6.874a9.4,9.4,0,0,0-2.774.535c3.019,1.876,5.005,5.647,5.005,10.054,0,6.419-4.215,12.292-9.7,13.166a8.739,8.739,0,0,1-1.452.106,11.062,11.062,0,0,0,.79.91,8.852,8.852,0,0,0,8.126,2.691A11.918,11.918,0,0,0,43.2,29.092a17.247,17.247,0,0,0,2.919-9.641A14.313,14.313,0,0,0,43.2,10.457a9.106,9.106,0,0,0-7.137-3.59c-.111,0-.222,0-.335.007"/>
    </clipPath>
    <linearGradient id="名称未設定グラデーション_2" data-name="名称未設定グラデーション 2" x1="-561.81" y1="-335.447" x2="-561.546" y2="-335.447" gradientTransform="matrix(110.706, 0, 0, -110.706, 62217.403, -37115.072)" gradientUnits="userSpaceOnUse">
      <stop offset="0" stop-color="#0098d8"/>
      <stop offset="0.02" stop-color="#0098d8"/>
      <stop offset="0.3" stop-color="#62afe2"/>
      <stop offset="0.7" stop-color="#badcf4"/>
      <stop offset="0.95" stop-color="#0068b6"/>
      <stop offset="1" stop-color="#0068b6"/>
    </linearGradient>
    <clipPath id="clip-path-3">
      <path class="cls-1" d="M6.341,40.837c1.181,9.372,4.244,15.534,5.8,17.7l5.641,4.188c-1.971-3.073-5.075-9.906-6.128-19.848S11.607,19.893,17.84,4.394L11.813,3.86c-5.959,15.018-6.657,27.6-5.472,36.977"/>
    </clipPath>
    <linearGradient id="名称未設定グラデーション_3" data-name="名称未設定グラデーション 3" x1="-557.301" y1="-333.343" x2="-557.037" y2="-333.343" gradientTransform="matrix(220.578, 0, 0, -220.578, 122911.027, -73494.817)" gradientUnits="userSpaceOnUse">
      <stop offset="0" stop-color="#0080cb"/>
      <stop offset="0.05" stop-color="#0080cb"/>
      <stop offset="0.4" stop-color="#b6daf3"/>
      <stop offset="0.98" stop-color="#0091d7"/>
      <stop offset="1" stop-color="#0091d7"/>
    </linearGradient>
    <clipPath id="clip-path-4">
      <path class="cls-1" d="M27.6,31.645a13.872,13.872,0,0,1-3.578-9.737A17.024,17.024,0,0,1,27.6,11.373a11.111,11.111,0,0,1,8.126-4.5A9.072,9.072,0,0,1,43.2,10.457a14.313,14.313,0,0,1,2.919,8.994A17.247,17.247,0,0,1,43.2,29.092a11.918,11.918,0,0,1-7.472,5.244,9.053,9.053,0,0,1-1.656.155,8.944,8.944,0,0,1-6.47-2.846M31.751.01a15.26,15.26,0,0,0-6.887,1.714A19.735,19.735,0,0,0,18.8,6.6l-.024.025c-.3-.74-.61-1.5-.931-2.226-6.233,15.5-7.234,28.542-6.185,38.482,1.019,9.6,3.948,16.305,5.921,19.518.045.073.091.146.135.214.029.043.052.082.08.121a.036.036,0,0,0,.041.021.044.044,0,0,0,.036-.021,88.612,88.612,0,0,0,4.355-14.938q.631-3.214,1-6.465a13.477,13.477,0,0,0,1.645.582,14.019,14.019,0,0,0,6.944.165,16.9,16.9,0,0,0,6.475-3.035,21.731,21.731,0,0,0,4.969-5.3A26.16,26.16,0,0,0,47.6,19.286,21.744,21.744,0,0,0,43.252,5.8,15.633,15.633,0,0,0,38.283,1.6a13.8,13.8,0,0,0-6.475-1.6h-.057"/>
    </clipPath>
    <linearGradient id="名称未設定グラデーション_4" data-name="名称未設定グラデーション 4" x1="-547.058" y1="-333.282" x2="-546.795" y2="-333.282" gradientTransform="matrix(0, 171.069, 171.069, 0, 57043.428, 93588.142)" gradientUnits="userSpaceOnUse">
      <stop offset="0" stop-color="#0096df"/>
      <stop offset="0.203" stop-color="#0082ce"/>
      <stop offset="0.735" stop-color="#0052a6"/>
      <stop offset="1" stop-color="#004097"/>
    </linearGradient>
    <clipPath id="clip-path-5">
      <path class="cls-1" d="M25.853,20.959a5.01,5.01,0,1,0,5.012-5.008,5.009,5.009,0,0,0-5.012,5.008"/>
    </clipPath>
    <radialGradient id="名称未設定グラデーション_8" data-name="名称未設定グラデーション 8" cx="-535.691" cy="-386.215" r="0.264" gradientTransform="matrix(18.98, 0, 0, -18.98, 10198.292, -7309.599)" gradientUnits="userSpaceOnUse">
      <stop offset="0" stop-color="#dadf00"/>
      <stop offset="0.15" stop-color="#dadf00"/>
      <stop offset="0.238" stop-color="#d4dd02"/>
      <stop offset="0.353" stop-color="#c4d807"/>
      <stop offset="0.484" stop-color="#a9cf0f"/>
      <stop offset="0.625" stop-color="#83c31b"/>
      <stop offset="0.776" stop-color="#52b32a"/>
      <stop offset="0.931" stop-color="#18a03d"/>
      <stop offset="0.99" stop-color="#009844"/>
      <stop offset="1" stop-color="#009844"/>
    </radialGradient>
    <clipPath id="clip-path-6">
      <path class="cls-1" d="M0,20.959a2.638,2.638,0,1,0,2.636-2.637A2.637,2.637,0,0,0,0,20.959"/>
    </clipPath>
    <radialGradient id="名称未設定グラデーション_8-2" cx="-511.936" cy="-435.875" r="0.264" gradientTransform="matrix(9.993, 0, 0, -9.993, 5118.108, -4334.623)" xlink:href="#名称未設定グラデーション_8"/>
    <clipPath id="clip-path-7">
      <path class="cls-1" d="M53.934,20.959a7.828,7.828,0,1,0,7.826-7.824,7.828,7.828,0,0,0-7.826,7.824"/>
    </clipPath>
    <radialGradient id="名称未設定グラデーション_8-3" cx="-544.953" cy="-366.347" r="0.264" gradientTransform="matrix(29.652, 0, 0, -29.652, 16220.719, -10842.255)" xlink:href="#名称未設定グラデーション_8"/>
    <clipPath id="clip-path-8">
      <path class="cls-1" d="M38.577,20.959A6.263,6.263,0,1,0,44.839,14.7a6.265,6.265,0,0,0-6.262,6.259"/>
    </clipPath>
    <radialGradient id="名称未設定グラデーション_8-4" cx="-540.867" cy="-375.171" r="0.264" gradientTransform="matrix(23.725, 0, 0, -23.725, 12876.825, -8880.097)" xlink:href="#名称未設定グラデーション_8"/>
  </defs>
  <g>
    <g>
      <path class="cls-2" d="M50.95,58.764a3.571,3.571,0,0,0,2.353.744A5.844,5.844,0,0,0,56.987,58.1v1.926a7.18,7.18,0,0,1-4.441,1.313,7.352,7.352,0,0,1-2.516-.412,5.119,5.119,0,0,1-1.868-1.168A4.888,4.888,0,0,1,46.785,56.2a5.563,5.563,0,0,1,.384-2.086,4.786,4.786,0,0,1,1.073-1.642A4.863,4.863,0,0,1,49.9,51.393a5.763,5.763,0,0,1,2.123-.388,5.1,5.1,0,0,1,3.732,1.5,5.494,5.494,0,0,1,1.4,4.154H50v.016a2.891,2.891,0,0,0,.953,2.085m3.473-3.73a2.6,2.6,0,0,0-.682-1.617,2.23,2.23,0,0,0-3.006-.007,2.6,2.6,0,0,0-.672,1.624l0,.015h4.363Z"/>
      <path class="cls-2" d="M75.31,60.671a4.871,4.871,0,0,1-3.089.863,9.269,9.269,0,0,1-3.661-.749V58.547a8.315,8.315,0,0,0,3.306.862,2.06,2.06,0,0,0,1.408-.386.533.533,0,0,0,.169-.391c0-.607-.837-.931-1.807-1.307-1.471-.567-3.3-1.279-3.3-3.284a2.736,2.736,0,0,1,.812-1.975,4.8,4.8,0,0,1,3.43-1.175,6.881,6.881,0,0,1,3.307.752V53.9a7.242,7.242,0,0,0-3.417-1.125c-.538,0-1.178.142-1.178.821,0,.424.686.7,1.558,1.041,1.5.592,3.548,1.405,3.548,3.574a2.971,2.971,0,0,1-1.087,2.46"/>
      <polygon class="cls-2" points="36.731 64.755 33.436 64.755 35.814 59.541 35.817 59.534 35.814 59.528 31.93 51.198 35.248 51.198 37.343 56.316 37.358 56.352 37.375 56.318 39.62 51.198 42.872 51.198 36.731 64.755"/>
      <polygon class="cls-2" points="81.273 64.755 77.979 64.755 80.355 59.541 80.36 59.534 80.355 59.528 76.473 51.198 79.791 51.198 81.886 56.316 81.9 56.352 81.912 56.318 84.162 51.198 87.414 51.198 81.273 64.755"/>
      <path class="cls-2" d="M64.412,61.078a1.377,1.377,0,0,1-.559-.855l-.007-.022-.018.015a5.565,5.565,0,0,1-3.283,1.119,2.9,2.9,0,0,1-2.07-.83,2.272,2.272,0,0,1-.7-1.6c0-2.3,1.63-2.809,5.572-4.03l.342-.107.013,0v-.01a1.53,1.53,0,0,0-.348-1.208,1.832,1.832,0,0,0-1.4-.474,4.758,4.758,0,0,0-1.944.452,5.921,5.921,0,0,0-1.72,1.19V52.207A8.124,8.124,0,0,1,62.6,51a4.805,4.805,0,0,1,3.471,1.04,2.675,2.675,0,0,1,.735,1.974v4.545a.78.78,0,0,0,.174.578.492.492,0,0,0,.362.131,1.261,1.261,0,0,0,.7-.244V60.68a6.28,6.28,0,0,1-2.46.655,2.163,2.163,0,0,1-1.176-.257m-.733-4.76a9.6,9.6,0,0,0-2.075.927,1.364,1.364,0,0,0-.685,1.187,1.091,1.091,0,0,0,.32.776,1.007,1.007,0,0,0,.716.3,2.672,2.672,0,0,0,1.739-.762l.007-.005V56.307Z"/>
      <rect class="cls-2" x="41.717" y="55.993" width="3.959" height="1.908"/>
      <path class="cls-2" d="M29.364,61.078a1.363,1.363,0,0,1-.561-.855L28.8,60.2l-.02.015A5.56,5.56,0,0,1,25.5,61.335a2.9,2.9,0,0,1-2.072-.83,2.275,2.275,0,0,1-.7-1.6c0-2.3,1.63-2.809,5.573-4.03l.343-.107.013,0v-.01a1.545,1.545,0,0,0-.35-1.208,1.825,1.825,0,0,0-1.4-.474,4.765,4.765,0,0,0-1.944.452,5.934,5.934,0,0,0-1.72,1.19V52.207A8.118,8.118,0,0,1,27.553,51a4.806,4.806,0,0,1,3.469,1.04,2.666,2.666,0,0,1,.734,1.974v4.545a.8.8,0,0,0,.172.578.5.5,0,0,0,.364.131A1.265,1.265,0,0,0,33,59.026V60.68a6.293,6.293,0,0,1-2.461.655,2.149,2.149,0,0,1-1.174-.257m-.736-4.76a9.574,9.574,0,0,0-2.073.927,1.364,1.364,0,0,0-.685,1.187,1.085,1.085,0,0,0,.318.776,1.013,1.013,0,0,0,.717.3,2.666,2.666,0,0,0,1.74-.762l.007-.005V56.307Z"/>
    </g>
    <g class="cls-3">
      <rect class="cls-4" x="18.782" y="-6.292" width="6.953" height="19.204" transform="translate(18.56 25.507) rotate(-89)"/>
    </g>
    <g class="cls-5">
      <rect class="cls-6" x="20.982" y="8.947" width="30.968" height="23.883" transform="translate(9.563 53.173) rotate(-80)"/>
    </g>
    <g class="cls-7">
      <rect class="cls-8" x="-18.53" y="22.916" width="60.057" height="20.752" transform="translate(-23.07 40.045) rotate(-82)"/>
    </g>
    <g class="cls-9">
      <rect class="cls-10" x="-5.233" y="-4.54" width="68.669" height="71.843" transform="translate(-13.363 26.048) rotate(-40.001)"/>
    </g>
    <g class="cls-11">
      <rect class="cls-12" x="25.853" y="15.951" width="10.019" height="10.02"/>
    </g>
    <g class="cls-13">
      <rect class="cls-14" y="18.322" width="5.275" height="5.275"/>
    </g>
    <g class="cls-15">
      <rect class="cls-16" x="53.934" y="13.135" width="15.655" height="15.652"/>
    </g>
    <g class="cls-17">
      <rect class="cls-18" x="38.577" y="14.7" width="12.525" height="12.524"/>
    </g>
  </g>
</svg>
