<svg xmlns="http://www.w3.org/2000/svg" viewBox="0 0 101.105 62.316">
  <defs>
    <style>
      .a {
        fill: none;
        stroke: #727272;
        stroke-linecap: round;
        stroke-miterlimit: 10;
        stroke-width: 3.5px;
      }

      .b {
        fill: #008859;
      }

      .c {
        fill: #00a26a;
      }
    </style>
  </defs>
  <g>
    <path class="a" d="M47.01,19.287C50.157,9.169,60.462,1.75,72.688,1.75c14.727,0,26.667,10.766,26.667,24.046A22.211,22.211,0,0,1,95.361,38.45a2.065,2.065,0,0,0-.081,2.193l3.356,5.873a.7.7,0,0,1-.712,1.031l-9.851-1.555a2.1,2.1,0,0,0-1.354.251,28.708,28.708,0,0,1-14.031,3.6,28.149,28.149,0,0,1-18.6-6.812"/>
    <path class="a" d="M28.417,12.474C13.689,12.474,1.75,23.24,1.75,36.52A22.217,22.217,0,0,0,5.743,49.174a2.063,2.063,0,0,1,.081,2.193L2.469,57.24a.7.7,0,0,0,.712,1.031l9.85-1.555a2.1,2.1,0,0,1,1.355.251,28.7,28.7,0,0,0,14.031,3.6c14.727,0,26.666-10.766,26.666-24.046S43.144,12.474,28.417,12.474Z"/>
    <g>
      <g>
        <circle class="b" cx="15.854" cy="37.765" r="2.543"/>
        <circle class="b" cx="28.417" cy="37.765" r="2.543"/>
        <circle class="b" cx="40.979" cy="37.765" r="2.543"/>
      </g>
      <g>
        <circle class="c" cx="15.854" cy="37.765" r="2.543"/>
        <circle class="c" cx="28.417" cy="37.765" r="2.543"/>
        <circle class="c" cx="40.979" cy="37.765" r="2.543"/>
      </g>
    </g>
    <g>
      <g>
        <circle class="b" cx="60.126" cy="26.65" r="2.543"/>
        <circle class="b" cx="72.688" cy="26.65" r="2.543"/>
        <circle class="b" cx="85.25" cy="26.65" r="2.543"/>
      </g>
      <g>
        <circle class="c" cx="60.126" cy="26.65" r="2.543"/>
        <circle class="c" cx="72.688" cy="26.65" r="2.543"/>
        <circle class="c" cx="85.25" cy="26.65" r="2.543"/>
      </g>
    </g>
  </g>
</svg>
