<svg xmlns="http://www.w3.org/2000/svg" viewBox="0 0 99.085 45.895">
  <defs>
    <style>
      .a, .b {
        fill: none;
        stroke-linecap: round;
        stroke-miterlimit: 10;
        stroke-width: 3.5px;
      }

      .a {
        stroke: #00a26a;
      }

      .b {
        stroke: #727272;
      }
    </style>
  </defs>
  <g>
    <path class="a" d="M45,43a5.113,5.113,0,0,0,6.459,0c4.761-3.871,13.578-11.4,18.014-17.445,6.259-8.535,4.2-22.5-7.382-23.72C54.652,1.046,50.512,6.176,48.955,8.68a.851.851,0,0,1-1.451,0c-1.557-2.5-5.7-7.634-13.136-6.849-11.586,1.221-13.641,15.185-7.382,23.72C31.421,31.6,40.239,39.125,45,43Z"/>
    <line class="b" x1="79.135" y1="22.948" x2="94.709" y2="22.948"/>
    <line class="b" x1="1.75" y1="22.948" x2="17.323" y2="22.948"/>
    <path class="a" d="M90.516,16.446l6.116,5.089a1.771,1.771,0,0,1,0,2.826L90.516,29.45"/>
  </g>
</svg>
