<svg id="レイヤー_1" data-name="レイヤー 1" xmlns="http://www.w3.org/2000/svg" viewBox="0 0 91.622 65.382">
  <defs>
    <style>
      .cls-1, .cls-2, .cls-4 {
        fill: none;
        stroke-linecap: round;
      }

      .cls-1 {
        stroke: #00a26a;
        stroke-miterlimit: 10;
      }

      .cls-1, .cls-2 {
        stroke-width: 3.5px;
      }

      .cls-2, .cls-4 {
        stroke: #727272;
        stroke-linejoin: round;
      }

      .cls-3 {
        fill: #00a26a;
      }

      .cls-4 {
        stroke-width: 2.5px;
      }
    </style>
  </defs>
  <g>
    <g>
      <polyline class="cls-1" points="63.191 36.778 21.751 36.778 21.751 9.555 66.958 9.555 66.958 15.842"/>
      <polyline class="cls-2" points="13.859 43.101 13.859 1.75 74.85 1.75 74.85 15.842"/>
      <polyline class="cls-2" points="63.191 50.037 1.75 50.037 1.75 43.101 63.191 43.101"/>
      <path class="cls-3" d="M44.462,25.622h-1.4a.426.426,0,0,1-.441-.44.426.426,0,0,1,.441-.441h1.4v-.327l-.192-.329H43.061a.426.426,0,0,1-.441-.44.426.426,0,0,1,.441-.441h.689l-1.491-2.452a.97.97,0,0,1-.158-.463.694.694,0,0,1,.3-.622,1.171,1.171,0,0,1,.666-.2.7.7,0,0,1,.487.164,1.279,1.279,0,0,1,.282.367l1.514,2.882L46.869,20a1.248,1.248,0,0,1,.283-.367.69.69,0,0,1,.485-.164,1.177,1.177,0,0,1,.667.2.7.7,0,0,1,.3.622.959.959,0,0,1-.158.463L46.959,23.2h.69a.423.423,0,0,1,.44.441.423.423,0,0,1-.44.44H46.44l-.192.329v.327h1.4a.423.423,0,0,1,.44.441.423.423,0,0,1-.44.44h-1.4v1.119a.907.907,0,0,1-.238.655.986.986,0,0,1-1.31,0,.911.911,0,0,1-.238-.655Z"/>
      <g>
        <path class="cls-4" d="M37.685,21.022V18.531a2.173,2.173,0,0,1,2.173-2.174H50.851a2.174,2.174,0,0,1,2.174,2.174V20.8"/>
        <path class="cls-4" d="M53.025,26.087v2.491a2.174,2.174,0,0,1-2.174,2.174H39.858a2.173,2.173,0,0,1-2.173-2.174V26.324"/>
      </g>
      <g>
        <path class="cls-3" d="M40.046,26.186,37.9,24.037a.3.3,0,0,0-.425,0l-2.149,2.149a.3.3,0,0,0,.213.513h4.3A.3.3,0,0,0,40.046,26.186Z"/>
        <path class="cls-3" d="M50.663,20.923l2.149,2.149a.3.3,0,0,0,.425,0l2.149-2.149a.3.3,0,0,0-.212-.513h-4.3A.3.3,0,0,0,50.663,20.923Z"/>
      </g>
    </g>
    <g>
      <g>
        <line class="cls-1" x1="63.191" y1="26.087" x2="89.872" y2="26.087"/>
        <line class="cls-1" x1="63.191" y1="53.387" x2="89.872" y2="53.387"/>
      </g>
      <rect class="cls-2" x="63.191" y="15.842" width="26.681" height="47.791" rx="3.736"/>
      <line class="cls-4" x1="75.801" y1="20.728" x2="77.934" y2="20.728"/>
      <line class="cls-4" x1="75.801" y1="58.644" x2="77.934" y2="58.644"/>
      <g>
        <path class="cls-3" d="M75.639,41.805h-1.4a.426.426,0,0,1-.441-.44.426.426,0,0,1,.441-.442h1.4V40.6l-.192-.328H74.238a.441.441,0,1,1,0-.881h.689l-1.491-2.452a.973.973,0,0,1-.158-.464.693.693,0,0,1,.3-.621,1.171,1.171,0,0,1,.666-.2.7.7,0,0,1,.487.163,1.293,1.293,0,0,1,.282.367l1.514,2.882,1.514-2.882a1.261,1.261,0,0,1,.283-.367.694.694,0,0,1,.485-.163,1.177,1.177,0,0,1,.667.2.7.7,0,0,1,.305.621.962.962,0,0,1-.158.464l-1.491,2.452h.689a.433.433,0,0,1,.317.124.441.441,0,0,1-.317.757H77.617l-.192.328v.327h1.4a.423.423,0,0,1,.44.442.423.423,0,0,1-.44.44h-1.4v1.118a.909.909,0,0,1-.238.656.986.986,0,0,1-1.31,0,.913.913,0,0,1-.238-.656Z"/>
        <g>
          <path class="cls-4" d="M68.862,37.205V34.713a2.173,2.173,0,0,1,2.173-2.173H82.028A2.173,2.173,0,0,1,84.2,34.713v2.273"/>
          <path class="cls-4" d="M84.2,42.269v2.492a2.173,2.173,0,0,1-2.174,2.173H71.035a2.173,2.173,0,0,1-2.173-2.173V42.506"/>
        </g>
        <g>
          <path class="cls-3" d="M71.223,42.369,69.074,40.22a.3.3,0,0,0-.424,0L66.5,42.369a.3.3,0,0,0,.213.513h4.3A.3.3,0,0,0,71.223,42.369Z"/>
          <path class="cls-3" d="M81.84,37.1l2.15,2.15a.3.3,0,0,0,.424,0l2.149-2.15a.3.3,0,0,0-.212-.512h-4.3A.3.3,0,0,0,81.84,37.1Z"/>
        </g>
      </g>
    </g>
  </g>
</svg>
