<svg xmlns="http://www.w3.org/2000/svg" viewBox="0 0 74.168 68.486">
  <defs>
    <style>
      .a, .b {
        fill: none;
        stroke-linecap: round;
        stroke-width: 3.5px;
      }

      .a {
        stroke: #727272;
        stroke-linejoin: round;
      }

      .b {
        stroke: #00a26a;
        stroke-miterlimit: 10;
      }

      .c {
        fill: #727272;
      }

      .d {
        fill: #00a26a;
      }
    </style>
  </defs>
  <g>
    <path class="a" d="M61.383,30.873a7.868,7.868,0,1,1,3.168,15.071"/>
    <path class="a" d="M22.543,21.04q-.741.215-1.46.464l.013-.023s-4.807-3.8-14.365-2.034a20.589,20.589,0,0,0,6.2,6.981c-2.337,2.338-5.279,7.321-5.5,11.88A18.745,18.745,0,0,1,1.75,43.635l3.106,9.386,6.07-.674c1.667,2.614,2.638,3.034,5.493,4.944,0,0,2.475,6.93,3.184,9.445h6.956l1.376-4.722a38.534,38.534,0,0,0,15.709,0l1.377,4.722h6.956c.709-2.515,3.183-9.444,3.183-9.445,5.936-3.971,9.674-9.737,9.674-16.156,0-6.7-4.068-12.69-10.46-16.668"/>
    <path class="b" d="M51.578,29.118a16.616,16.616,0,1,0-26.028-.953A49.084,49.084,0,0,1,38.28,26.71,37.078,37.078,0,0,1,51.578,29.118Z"/>
    <circle class="c" cx="15.697" cy="38.606" r="2.418"/>
    <path class="d" d="M37.483,18.8H35.2a.718.718,0,1,1,0-1.435h2.281v-.533L37.17,16.3H35.2a.718.718,0,1,1,0-1.435h1.122L33.9,10.873a1.572,1.572,0,0,1-.258-.755,1.133,1.133,0,0,1,.5-1.011,1.915,1.915,0,0,1,1.085-.331,1.135,1.135,0,0,1,.791.266,2.04,2.04,0,0,1,.46.6l2.465,4.69L41.4,9.64a2.057,2.057,0,0,1,.46-.6,1.137,1.137,0,0,1,.791-.266,1.912,1.912,0,0,1,1.085.331,1.13,1.13,0,0,1,.5,1.011,1.572,1.572,0,0,1-.258.755l-2.427,3.991H42.67a.718.718,0,1,1,0,1.435H40.7l-.313.533v.533H42.67a.718.718,0,1,1,0,1.435H40.389v1.821A1.483,1.483,0,0,1,40,21.688a1.608,1.608,0,0,1-2.134,0,1.479,1.479,0,0,1-.386-1.067Z"/>
  </g>
</svg>
