<svg xmlns="http://www.w3.org/2000/svg" viewBox="0 0 89.351 69.932">
  <defs>
    <style>
      .a, .c {
        fill: none;
        stroke-linecap: round;
      }

      .a {
        stroke: #00a26a;
        stroke-linejoin: round;
        stroke-width: 2.5px;
      }

      .b {
        fill: #00a26a;
      }

      .c {
        stroke: #727272;
        stroke-miterlimit: 10;
        stroke-width: 3.5px;
      }
    </style>
  </defs>
  <g>
    <polyline class="a" points="3.873 39.201 16.46 22.767 26.886 34.471 44.586 12.381 56.366 25.762 73.571 4.219"/>
    <circle class="b" cx="16.416" cy="22.776" r="4.219"/>
    <circle class="b" cx="4.219" cy="39.201" r="4.219"/>
    <circle class="b" cx="44.586" cy="12.381" r="4.219"/>
    <circle class="b" cx="56.652" cy="25.29" r="4.219"/>
    <circle class="b" cx="73.571" cy="4.219" r="4.219"/>
    <circle class="b" cx="26.886" cy="34.471" r="4.219"/>
    <g>
      <g>
        <path class="a" d="M62.589,58.527c0,2.3-4.479,4.165-10,4.165s-10-1.865-10-4.165"/>
        <path class="a" d="M62.589,53.037c0,2.3-4.479,4.165-10,4.165s-10-1.865-10-4.165"/>
        <path class="a" d="M62.589,47.547c0,2.3-4.479,4.164-10,4.164s-10-1.864-10-4.164"/>
        <path class="a" d="M62.589,42.057c0,2.3-4.479,4.164-10,4.164s-10-1.864-10-4.164"/>
        <path class="c" d="M62.589,64.018c0,2.3-4.479,4.164-10,4.164s-10-1.865-10-4.164V42.057c0-2.3,4.479-4.165,10-4.165s10,1.865,10,4.165Z"/>
      </g>
      <path class="a" d="M87.6,58.527c0,2.3-4.479,4.165-10,4.165s-10-1.865-10-4.165"/>
      <path class="a" d="M87.6,53.037c0,2.3-4.479,4.165-10,4.165s-10-1.865-10-4.165"/>
      <path class="a" d="M87.6,47.547c0,2.3-4.479,4.164-10,4.164s-10-1.864-10-4.164"/>
      <path class="a" d="M87.6,42.057c0,2.3-4.479,4.164-10,4.164s-10-1.864-10-4.164"/>
      <path class="a" d="M87.6,36.567c0,2.3-4.479,4.164-10,4.164s-10-1.864-10-4.164"/>
      <path class="a" d="M87.6,31.076c0,2.3-4.479,4.165-10,4.165s-10-1.865-10-4.165"/>
      <path class="c" d="M67.594,31.076c0-2.3,4.479-4.164,10-4.164s10,1.865,10,4.164V64.018c0,2.3-4.479,4.164-10,4.164s-10-1.865-10-4.164Z"/>
    </g>
  </g>
</svg>
