<svg xmlns="http://www.w3.org/2000/svg" viewBox="0 0 39.259 67.551">
  <defs>
    <style>
      .a {
        fill: #00a26a;
      }

      .b, .c, .d {
        fill: none;
        stroke-linecap: round;
      }

      .b {
        stroke: #00a26a;
        stroke-miterlimit: 10;
      }

      .b, .c {
        stroke-width: 3.5px;
      }

      .c, .d {
        stroke: #727272;
        stroke-linejoin: round;
      }

      .d {
        stroke-width: 2.5px;
      }
    </style>
  </defs>
  <g>
    <path class="a" d="M17.474,39.411h-3.82a1.2,1.2,0,1,1,0-2.4h3.82v-.893l-.524-.893h-3.3a1.2,1.2,0,1,1,0-2.4h1.879l-4.065-6.684a2.626,2.626,0,0,1-.432-1.263,1.9,1.9,0,0,1,.832-1.694,3.212,3.212,0,0,1,1.817-.554,1.9,1.9,0,0,1,1.325.447,3.385,3.385,0,0,1,.769,1l4.128,7.854,4.127-7.854a3.389,3.389,0,0,1,.77-1,1.9,1.9,0,0,1,1.324-.447,3.212,3.212,0,0,1,1.817.554,1.9,1.9,0,0,1,.832,1.694,2.634,2.634,0,0,1-.431,1.263L24.28,32.821h1.879a1.2,1.2,0,1,1,0,2.4H22.864l-.524.893v.893h3.819a1.2,1.2,0,1,1,0,2.4H22.34v3.05a2.479,2.479,0,0,1-.647,1.786,2.355,2.355,0,0,1-1.786.678,2.357,2.357,0,0,1-1.787-.678,2.478,2.478,0,0,1-.646-1.786Z"/>
    <g>
      <line class="b" x1="1.75" y1="15.481" x2="37.509" y2="15.481"/>
      <line class="b" x1="1.75" y1="52.07" x2="37.509" y2="52.07"/>
    </g>
    <rect class="c" x="1.75" y="1.75" width="35.759" height="64.051" rx="6"/>
    <g>
      <rect class="d" x="16.949" y="6.712" width="6.259" height="3.4" rx="1.7"/>
      <rect class="d" x="16.949" y="57.439" width="6.259" height="3.4" rx="1.7"/>
    </g>
  </g>
</svg>
