<svg xmlns="http://www.w3.org/2000/svg" viewBox="0 0 84.742 69.918">
  <defs>
    <style>
      .a, .b, .c, .d, .e {
        fill: none;
        stroke-linecap: round;
      }

      .a, .c {
        stroke: #727272;
      }

      .a, .e {
        stroke-miterlimit: 10;
      }

      .a, .b, .e {
        stroke-width: 3.5px;
      }

      .b, .d, .e {
        stroke: #00a26a;
      }

      .b, .c, .d {
        stroke-linejoin: round;
      }

      .c, .d {
        stroke-width: 2.5px;
      }
    </style>
  </defs>
  <g>
    <line class="a" x1="1.75" y1="8.381" x2="78.814" y2="8.381"/>
    <path class="b" d="M74.539,1.75l6.236,5.19a1.8,1.8,0,0,1,0,2.881l-6.236,5.19"/>
    <g>
      <g>
        <path class="c" d="M82.992,56.968c0,2.668-5.2,4.831-11.605,4.831s-11.605-2.163-11.605-4.831"/>
        <path class="c" d="M82.992,50.6c0,2.668-5.2,4.831-11.605,4.831S59.782,53.267,59.782,50.6"/>
        <path class="c" d="M82.992,44.23c0,2.668-5.2,4.831-11.605,4.831S59.782,46.9,59.782,44.23"/>
        <path class="a" d="M80.108,41.042c1.8.851,2.884,1.966,2.884,3.188V63.337c0,2.668-5.2,4.831-11.605,4.831s-11.605-2.163-11.605-4.831V44.23c0-1.222,1.089-2.337,2.885-3.188"/>
      </g>
      <g>
        <path class="c" d="M53.976,56.968c0,2.668-5.2,4.831-11.6,4.831s-11.605-2.163-11.605-4.831"/>
        <path class="c" d="M53.976,50.6c0,2.668-5.2,4.831-11.6,4.831S30.766,53.267,30.766,50.6"/>
        <path class="a" d="M33.647,47.413c-1.793.85-2.881,1.965-2.881,3.186V63.337c0,2.668,5.2,4.831,11.605,4.831s11.6-2.163,11.6-4.831V50.6c0-1.221-1.088-2.336-2.882-3.187"/>
      </g>
      <g>
        <path class="d" d="M82.992,25.122c0,2.669-5.2,4.831-11.605,4.831s-11.605-2.162-11.605-4.831"/>
        <path class="d" d="M82.992,31.492c0,2.668-5.2,4.831-11.605,4.831S59.782,34.16,59.782,31.492"/>
        <path class="d" d="M82.992,31.492c0,2.668-5.2,4.831-11.605,4.831S59.782,34.16,59.782,31.492"/>
        <path class="e" d="M82.992,37.861V25.122c0-2.668-5.2-4.831-11.605-4.831s-11.605,2.163-11.605,4.831V37.861c0,2.668,5.2,4.831,11.605,4.831S82.992,40.529,82.992,37.861Z"/>
      </g>
      <g>
        <path class="c" d="M24.96,56.968c0,2.668-5.2,4.831-11.6,4.831s-11.6-2.163-11.6-4.831"/>
        <path class="c" d="M24.96,50.6c0,2.668-5.2,4.831-11.6,4.831S1.75,53.267,1.75,50.6"/>
        <path class="c" d="M24.96,44.23c0,2.668-5.2,4.831-11.6,4.831S1.75,46.9,1.75,44.23"/>
        <path class="c" d="M24.96,37.861c0,2.668-5.2,4.831-11.6,4.831s-11.6-2.163-11.6-4.831"/>
        <path class="c" d="M24.96,31.492c0,2.668-5.2,4.831-11.6,4.831S1.75,34.16,1.75,31.492"/>
        <path class="c" d="M24.96,25.122c0,2.669-5.2,4.831-11.6,4.831s-11.6-2.162-11.6-4.831"/>
        <path class="a" d="M1.75,25.122c0-2.668,5.2-4.831,11.605-4.831S24.96,22.454,24.96,25.122V63.337c0,2.668-5.2,4.831-11.6,4.831s-11.6-2.163-11.6-4.831Z"/>
      </g>
      <g>
        <path class="d" d="M53.976,37.861c0,2.668-5.2,4.831-11.6,4.831s-11.605-2.163-11.605-4.831"/>
        <path class="d" d="M53.976,31.492c0,2.668-5.2,4.831-11.6,4.831S30.766,34.16,30.766,31.492"/>
        <path class="d" d="M53.976,25.122c0,2.669-5.2,4.831-11.6,4.831s-11.605-2.162-11.605-4.831"/>
        <path class="e" d="M30.766,25.122c0-2.668,5.2-4.831,11.605-4.831s11.6,2.163,11.6,4.831V44.23c0,2.668-5.2,4.831-11.6,4.831S30.766,46.9,30.766,44.23Z"/>
      </g>
    </g>
  </g>
</svg>
