<svg xmlns="http://www.w3.org/2000/svg" viewBox="0 0 85.103 63.357">
  <defs>
    <style>
      .a, .b {
        fill: none;
        stroke-linecap: round;
        stroke-linejoin: round;
        stroke-width: 3.5px;
      }

      .a {
        stroke: #727272;
      }

      .b {
        stroke: #00a26a;
      }
    </style>
  </defs>
  <g>
    <polygon class="a" points="80.194 19.715 57.71 19.715 60.869 1.75 83.353 1.75 80.194 19.715"/>
    <polyline class="a" points="53.392 43.56 56.357 26.698 71.181 26.698 65.042 61.607 59.816 61.607 60.763 56.218 54.348 56.218 53.4 61.607 40.246 61.607 42.128 50.904 19.234 50.904 20.526 43.56 44.225 43.56"/>
    <polygon class="a" points="35.051 61.607 17.352 61.607 18.375 55.792 36.074 55.792 35.051 61.607"/>
    <polygon class="a" points="1.75 61.607 11.962 61.607 15.136 43.56 4.924 43.56 1.75 61.607"/>
    <path class="b" d="M43.672,28.711a70.167,70.167,0,0,0-13.366-10.98,1.839,1.839,0,0,1-.639-2.477l2.739-4.766a.914.914,0,0,0-.876-1.367L11.111,10.99A1.83,1.83,0,0,0,9.65,13.648L18.758,31.4a.916.916,0,0,0,1.608.038l2.91-5.064a1.841,1.841,0,0,1,2.6-.615c9.789,6.256,16.682,15.159,21.736,22.552"/>
  </g>
</svg>
