<svg xmlns="http://www.w3.org/2000/svg" viewBox="0 0 88.435 64.379">
  <defs>
    <style>
      .a, .b, .c, .d {
        fill: none;
        stroke-linecap: round;
      }

      .a, .c {
        stroke: #00a26a;
      }

      .a, .b, .d {
        stroke-linejoin: round;
      }

      .a, .c, .d {
        stroke-width: 2.5px;
      }

      .b, .d {
        stroke: #727272;
      }

      .b {
        stroke-width: 3.5px;
      }

      .c {
        stroke-miterlimit: 10;
      }
    </style>
  </defs>
  <g>
    <path class="a" d="M8.883,11.992s16.651-1.9,20.844-.854,5.727,5.751,1.112,6.7-6.857,5.126-9.306,7.973A13.345,13.345,0,0,1,12.6,29.8c-1.221,0,2.325,16.753-5.477,18.355"/>
    <path class="a" d="M27.424,30.116a9.822,9.822,0,0,1-3.943,2.412"/>
    <line class="a" x1="25.422" y1="35.179" x2="23.982" y2="35.694"/>
    <line class="a" x1="20.711" y1="33.622" x2="20.564" y2="36.979"/>
    <line class="a" x1="30.136" y1="26.269" x2="29.303" y2="27.889"/>
    <path class="a" d="M52.457,10.823a67.327,67.327,0,0,0-8.314,0c-3.146.315-5.592,4.858-2.8,8.615s9.348,5.067,10.746,7.426a38.173,38.173,0,0,1,3.41,7.2"/>
    <path class="a" d="M26.466,48.3a3.236,3.236,0,0,1-4.078,1.281c-1.383-.541-1.954,1.861-.931,2.854s4.346,1.694,6.436,1.514c2.708-.233,3.931-.931,3.648-2.95a10.6,10.6,0,0,0-1.762-4.148C29.174,46.055,27.63,46.517,26.466,48.3Z"/>
    <path class="b" d="M35.275,60.365A29.449,29.449,0,1,1,60.645,31.2q0,.984-.064,1.953"/>
    <g>
      <polygon class="c" points="54.782 38.766 75.148 38.766 75.148 55.149 47.941 55.149 47.941 38.766 54.782 38.766"/>
      <polyline class="d" points="43.192 58.955 43.192 34.069 50.68 34.069 79.897 34.069 79.897 58.955"/>
      <polygon class="d" points="87.185 63.129 87.185 58.955 72.881 58.955 35.904 58.955 35.904 63.129 72.881 63.129 87.185 63.129"/>
    </g>
  </g>
</svg>
