<svg xmlns="http://www.w3.org/2000/svg" viewBox="0 0 80.501 59.063">
  <defs>
    <style>
      .a {
        fill: #00a26a;
      }

      .b, .c, .d {
        fill: none;
        stroke-linecap: round;
      }

      .b, .c {
        stroke: #727272;
        stroke-linejoin: round;
      }

      .b, .d {
        stroke-width: 3.5px;
      }

      .c {
        stroke-width: 2.5px;
      }

      .d {
        stroke: #00a26a;
        stroke-miterlimit: 10;
      }
    </style>
  </defs>
  <g>
    <path class="a" d="M80.111,24.661c-4.05,1.116-5.508,2.729-7.241,8.009-.189.577-.785.509-.84-.1-.5-5.534-1.555-7.434-5.249-9.434a.7.7,0,0,1,.134-1.173c4.049-1.116,5.507-2.73,7.24-8.009.19-.578.786-.509.84.1.5,5.534,1.556,7.434,5.25,9.434A.706.706,0,0,1,80.111,24.661Z"/>
    <path class="a" d="M68.345,9.9c-2.835.781-3.856,1.91-5.069,5.607-.132.4-.55.356-.588-.068-.349-3.874-1.089-5.2-3.675-6.6a.493.493,0,0,1,.094-.821C61.942,7.23,62.963,6.1,64.176,2.4c.132-.4.55-.357.588.067.349,3.874,1.089,5.205,3.675,6.605A.494.494,0,0,1,68.345,9.9Z"/>
    <circle class="b" cx="28.853" cy="28.853" r="27.096"/>
    <circle class="c" cx="28.853" cy="28.853" r="19.893"/>
    <path class="b" d="M18.385,53.846l3.035,1.3c13.8,5.781,29.556-.425,35.184-13.863s.51-28.518-14.331-35.974"/>
    <line class="d" x1="31.92" y1="16.213" x2="17.149" y2="35.812"/>
    <line class="d" x1="24.081" y1="15.538" x2="13.92" y2="28.853"/>
  </g>
</svg>
