<svg xmlns="http://www.w3.org/2000/svg" viewBox="0 0 67.801 59.77">
  <defs>
    <style>
      .a, .b, .c, .d {
        fill: none;
        stroke-linecap: round;
      }

      .a, .d {
        stroke: #00a26a;
      }

      .a {
        stroke-miterlimit: 10;
      }

      .a, .c {
        stroke-width: 3.5px;
      }

      .b, .c {
        stroke: #727272;
      }

      .b, .c, .d {
        stroke-linejoin: round;
      }

      .b, .d {
        stroke-width: 2.5px;
      }
    </style>
  </defs>
  <g>
    <path class="a" d="M1.75,58.02V54.288a2.283,2.283,0,0,1,2.283-2.283H63.768a2.283,2.283,0,0,1,2.283,2.283V58.02"/>
    <g>
      <g>
        <path class="b" d="M43.916,19.148a12.742,12.742,0,0,1-.651,4.858C41.73,29,39.659,32.117,33.9,32.117S26.071,29,24.536,24.006a12.717,12.717,0,0,1-.651-4.858"/>
        <path class="b" d="M22,18.586s6.464-1.535,8.12-7.86c0,0,7,8.422,15.779,8.01"/>
        <path class="c" d="M14.4,46.084s-.1-7.435,3.186-8.5,6.3-2.426,6.3-2.426l-1.23,5.462,4.863,1.813L29.2,46.084"/>
        <path class="c" d="M53.405,46.084s.1-7.435-3.187-8.5-6.3-2.426-6.3-2.426l1.23,5.462-4.863,1.813L38.6,46.084"/>
        <polyline class="d" points="29.763 36.149 33.946 42.436 37.712 36.149"/>
      </g>
      <path class="c" d="M21.623,31.7a36.54,36.54,0,0,1-3.436-11.2C17.441,12.8,21.533,1.75,33.9,1.75"/>
      <path class="c" d="M46.179,31.7a36.51,36.51,0,0,0,3.436-11.2C50.362,12.8,46.269,1.75,33.9,1.75"/>
    </g>
  </g>
</svg>
