<svg xmlns="http://www.w3.org/2000/svg" viewBox="0 0 92.478 55.936">
  <defs>
    <style>
      .a, .b {
        fill: none;
        stroke-linecap: round;
      }

      .a {
        stroke: #00a26a;
        stroke-linejoin: round;
        stroke-width: 2.5px;
      }

      .b {
        stroke: #727272;
        stroke-miterlimit: 10;
        stroke-width: 3.5px;
      }
    </style>
  </defs>
  <g>
    <g>
      <path class="a" d="M58.949,41.919c0,2.922-5.69,5.291-12.71,5.291s-12.71-2.369-12.71-5.291"/>
      <path class="a" d="M58.949,34.943c0,2.923-5.69,5.291-12.71,5.291s-12.71-2.368-12.71-5.291"/>
      <path class="a" d="M58.949,27.968c0,2.922-5.69,5.291-12.71,5.291s-12.71-2.369-12.71-5.291"/>
      <path class="a" d="M58.949,20.992c0,2.922-5.69,5.291-12.71,5.291s-12.71-2.369-12.71-5.291"/>
      <path class="b" d="M58.949,48.9c0,2.922-5.69,5.291-12.71,5.291s-12.71-2.369-12.71-5.291v-27.9c0-2.922,5.691-5.291,12.71-5.291s12.71,2.369,12.71,5.291Z"/>
    </g>
    <g>
      <path class="a" d="M27.17,41.919c0,2.922-5.69,5.291-12.71,5.291S1.75,44.841,1.75,41.919"/>
      <path class="a" d="M27.17,34.943c0,2.923-5.69,5.291-12.71,5.291S1.75,37.866,1.75,34.943"/>
      <path class="b" d="M27.17,48.9V34.943c0-2.922-5.69-5.291-12.71-5.291S1.75,32.021,1.75,34.943V48.9c0,2.922,5.69,5.291,12.71,5.291S27.17,51.817,27.17,48.9Z"/>
    </g>
    <path class="a" d="M90.728,41.919c0,2.922-5.69,5.291-12.71,5.291s-12.71-2.369-12.71-5.291"/>
    <path class="a" d="M90.728,34.943c0,2.923-5.69,5.291-12.71,5.291s-12.71-2.368-12.71-5.291"/>
    <path class="a" d="M90.728,27.968c0,2.922-5.69,5.291-12.71,5.291s-12.71-2.369-12.71-5.291"/>
    <path class="a" d="M90.728,20.992c0,2.922-5.69,5.291-12.71,5.291s-12.71-2.369-12.71-5.291"/>
    <path class="a" d="M90.728,14.017c0,2.922-5.69,5.291-12.71,5.291s-12.71-2.369-12.71-5.291"/>
    <path class="a" d="M90.728,7.041c0,2.922-5.69,5.291-12.71,5.291s-12.71-2.369-12.71-5.291"/>
    <path class="b" d="M65.308,7.041c0-2.922,5.691-5.291,12.71-5.291s12.71,2.369,12.71,5.291V48.9c0,2.922-5.69,5.291-12.71,5.291s-12.71-2.369-12.71-5.291Z"/>
  </g>
</svg>
