<svg xmlns="http://www.w3.org/2000/svg" viewBox="0 0 76.823 69.24">
  <defs>
    <style>
      .a {
        fill: #00a26a;
      }

      .b {
        fill: none;
        stroke: #727272;
        stroke-linecap: round;
        stroke-linejoin: round;
        stroke-width: 3.5px;
      }
    </style>
  </defs>
  <g>
    <path class="a" d="M38.471,25.6H32.647a1.832,1.832,0,1,1,0-3.663h5.824V20.572l-.8-1.362H32.647a1.832,1.832,0,1,1,0-3.663h2.865l-6.2-10.193a4.005,4.005,0,0,1-.657-1.925A2.891,2.891,0,0,1,29.923.846,4.888,4.888,0,0,1,32.694,0a2.894,2.894,0,0,1,2.02.682,5.17,5.17,0,0,1,1.173,1.526l6.294,11.977L48.475,2.208A5.208,5.208,0,0,1,49.649.682,2.9,2.9,0,0,1,51.669,0,4.893,4.893,0,0,1,54.44.846a2.89,2.89,0,0,1,1.269,2.583,4.008,4.008,0,0,1-.658,1.925l-6.2,10.193h2.866a1.832,1.832,0,1,1,0,3.663H46.69l-.8,1.362v1.363h5.825a1.832,1.832,0,1,1,0,3.663H45.892v4.65a3.784,3.784,0,0,1-.986,2.724,4.108,4.108,0,0,1-5.448,0,3.78,3.78,0,0,1-.987-2.724Z"/>
    <path class="b" d="M9.347,67.49l6.482-6.014H49.8c6.243,0,20.525-11.473,23.159-13.134a3.958,3.958,0,0,0,1.62-5.46c-.709-1.543-3.342-2.611-7.5.475S53.51,51.309,49.357,51.309H31.925"/>
    <path class="b" d="M1.75,60.21s2.56-3.11,6.685-7.952c3.271-3.838,5.942-8.867,8-9.969,4.66-2.493,16.124-.105,21.189-.105,3.568,0,8.534-.776,10.819,1.292,3,2.715,2.836,7.833-3.95,7.833"/>
  </g>
</svg>
