<svg xmlns="http://www.w3.org/2000/svg" viewBox="0 0 76.907 64.877">
  <defs>
    <style>
      .a, .b, .c, .d {
        fill: none;
        stroke-linecap: round;
      }

      .a {
        stroke: #00a26a;
      }

      .a, .c {
        stroke-miterlimit: 10;
      }

      .a, .b, .c {
        stroke-width: 3.5px;
      }

      .b, .c, .d {
        stroke: #727272;
      }

      .b, .d {
        stroke-linejoin: round;
      }

      .d {
        stroke-width: 2.5px;
      }
    </style>
  </defs>
  <g>
    <path class="a" d="M56.814,62.373a3.357,3.357,0,0,0,4.239,0c3.125-2.542,8.913-7.481,11.825-11.452,4.109-5.6,2.759-14.769-4.845-15.571a8.966,8.966,0,0,0-8.624,4.5.559.559,0,0,1-.952,0,8.963,8.963,0,0,0-8.623-4.5c-7.605.8-8.954,9.968-4.845,15.571C47.9,54.892,53.688,59.831,56.814,62.373Z"/>
    <g>
      <path class="b" d="M46.142,21.985a3.094,3.094,0,0,0-3.432-2.94c1.7-5.828,1.588-12.08-3.948-13.337,0-3.428-4.66-4.228-10.365-3.885-12.34.742-14.135,7.7-14.314,17.222a3.093,3.093,0,0,0-3.432,2.94,4.613,4.613,0,0,0,4.329,5.633C16.585,34.172,20.529,39.41,28.4,39.41c7.326,0,11.5-5.23,13.283-11.777C44.124,27.532,46.7,25.744,46.142,21.985Z"/>
      <path class="c" d="M13.157,42.468A27.115,27.115,0,0,0,6.1,48.991C3.179,52.746,1.75,60.348,1.75,60.348"/>
    </g>
    <path class="d" d="M25.1,25.59s-4.084,1.275-4.084,5.507"/>
    <path class="d" d="M14.083,19.045s3.935-.532,4.734-2.929a11.662,11.662,0,0,0,.444-3.755A19.969,19.969,0,0,0,28.4,14.892c4.659-.093,9.863-2.531,9.863-2.531s.905,6.65,4.45,6.684"/>
    <path class="d" d="M36.662,8.84s-3.511,2.824-9.815,2.439"/>
    <path class="d" d="M32.536,6.965a18.725,18.725,0,0,1-6.029.451"/>
  </g>
</svg>
