<svg xmlns="http://www.w3.org/2000/svg" viewBox="0 0 97.443 66.544">
  <defs>
    <style>
      .a, .b {
        fill: none;
        stroke-linecap: round;
        stroke-width: 3.5px;
      }

      .a {
        stroke: #727272;
        stroke-linejoin: round;
      }

      .b {
        stroke: #00a26a;
        stroke-miterlimit: 10;
      }
    </style>
  </defs>
  <g>
    <g>
      <line class="a" x1="1.75" y1="9.875" x2="58.176" y2="9.875"/>
      <line class="a" x1="1.75" y1="18.337" x2="58.176" y2="18.337"/>
      <line class="a" x1="36.114" y1="24.767" x2="40.402" y2="24.767"/>
      <line class="a" x1="46.295" y1="24.767" x2="50.583" y2="24.767"/>
      <line class="b" x1="46.861" y1="40.346" x2="29.464" y2="40.346"/>
      <path class="b" d="M21.189,40.346H5.9A4.163,4.163,0,0,1,1.75,36.2V5.9A4.163,4.163,0,0,1,5.9,1.75H54.025A4.163,4.163,0,0,1,58.176,5.9V31.392"/>
    </g>
    <g>
      <line class="a" x1="46.861" y1="37.731" x2="95.693" y2="37.731"/>
      <line class="a" x1="76.6" y1="51.312" x2="80.311" y2="51.312"/>
      <line class="a" x1="85.411" y1="51.312" x2="89.122" y2="51.312"/>
      <rect class="a" x="46.861" y="31.392" width="48.833" height="33.402" rx="4"/>
      <path class="a" d="M46.861,54.157s7.814-3.6,17.875.9c8.063,3.6,20.1,6.681,30.957-1.214"/>
    </g>
    <path class="b" d="M21.189,33.28V48.505a4.288,4.288,0,0,0,4.288,4.289H38.788"/>
    <path class="b" d="M35.778,46.689,39.8,50.564a3.049,3.049,0,0,1,.082,4.31L36.01,58.9"/>
  </g>
</svg>
