<svg xmlns="http://www.w3.org/2000/svg" viewBox="0 0 83.499 64.022">
  <defs>
    <style>
      .a {
        fill: #00a26a;
      }

      .b, .c {
        fill: none;
        stroke-linecap: round;
        stroke-linejoin: round;
        stroke-width: 3.5px;
      }

      .b {
        stroke: #727272;
      }

      .c {
        stroke: #00a26a;
      }
    </style>
  </defs>
  <g>
    <g>
      <path class="a" d="M15.117,36.579H12.354a.869.869,0,1,1,0-1.738h2.763v-.647l-.379-.645H12.354a.87.87,0,1,1,0-1.74h1.359l-2.942-4.835a1.9,1.9,0,0,1-.311-.914,1.37,1.37,0,0,1,.6-1.225,2.321,2.321,0,0,1,1.315-.4,1.373,1.373,0,0,1,.958.323,2.454,2.454,0,0,1,.557.724l2.986,5.683,2.987-5.683a2.467,2.467,0,0,1,.556-.724,1.377,1.377,0,0,1,.959-.323,2.321,2.321,0,0,1,1.315.4,1.373,1.373,0,0,1,.6,1.225,1.9,1.9,0,0,1-.312.914l-2.941,4.835H21.4a.87.87,0,1,1,0,1.74H19.017l-.379.645v.647H21.4a.869.869,0,1,1,0,1.738H18.638v2.206a1.793,1.793,0,0,1-.468,1.292,1.7,1.7,0,0,1-1.293.491,1.7,1.7,0,0,1-1.292-.491,1.793,1.793,0,0,1-.468-1.292Z"/>
      <circle class="b" cx="16.877" cy="32.002" r="15.127"/>
    </g>
    <g>
      <circle class="b" cx="66.622" cy="32.002" r="15.127"/>
      <path class="a" d="M66.055,32.64a7.842,7.842,0,0,1-3.568-1.449,3.275,3.275,0,0,1-1.257-2.666,3.726,3.726,0,0,1,1.4-3.081,5.6,5.6,0,0,1,3.426-1.175V23.8a.712.712,0,0,1,.182-.476.548.548,0,0,1,.426-.213.537.537,0,0,1,.435.213.739.739,0,0,1,.173.476v.467a7.233,7.233,0,0,1,1.459.223,7.613,7.613,0,0,1,1.6.587,4.192,4.192,0,0,1,1.268.943,1.853,1.853,0,0,1,.5,1.267,1.18,1.18,0,0,1-.375.912,1.285,1.285,0,0,1-.9.344.961.961,0,0,1-.639-.212,5.141,5.141,0,0,1-.618-.659,4.442,4.442,0,0,0-.963-.983,2.386,2.386,0,0,0-1.327-.355v3.851a17.143,17.143,0,0,1,2.037.538,5.9,5.9,0,0,1,1.541.78,3.45,3.45,0,0,1,1.073,1.267,4.15,4.15,0,0,1,.4,1.9,3.7,3.7,0,0,1-1.348,3.051,6.38,6.38,0,0,1-3.7,1.226V40.2a.739.739,0,0,1-.173.476.537.537,0,0,1-.435.213.548.548,0,0,1-.426-.213.712.712,0,0,1-.182-.476V38.944a6.751,6.751,0,0,1-2.21-.375,5.157,5.157,0,0,1-1.611-.9,3.987,3.987,0,0,1-.973-1.2,2.734,2.734,0,0,1-.335-1.256,1.173,1.173,0,0,1,1.257-1.277,1.288,1.288,0,0,1,.963.293,2.682,2.682,0,0,1,.5.923,6.635,6.635,0,0,0,.264.658,1.619,1.619,0,0,0,.375.487,2.079,2.079,0,0,0,.689.4,3.433,3.433,0,0,0,1.085.183Zm0-6.3a2.634,2.634,0,0,0-1.632.527,1.494,1.494,0,0,0-.639,1.2q0,1.459,2.271,1.9Zm1.216,10.541a3.432,3.432,0,0,0,1.763-.558,1.622,1.622,0,0,0,.73-1.429,1.544,1.544,0,0,0-.223-.841,1.8,1.8,0,0,0-.588-.578,3.605,3.605,0,0,0-.77-.355c-.271-.087-.575-.172-.912-.253Z"/>
    </g>
    <path class="b" d="M63.929,11.1a30.233,30.233,0,0,0-43.718,0"/>
    <path class="b" d="M20.211,52.925a30.235,30.235,0,0,0,43.719,0"/>
    <polyline class="c" points="63.169 1.781 63.929 11.097 54.613 11.858"/>
    <polyline class="c" points="20.972 62.241 20.211 52.925 29.528 52.164"/>
  </g>
</svg>
