<svg xmlns="http://www.w3.org/2000/svg" viewBox="0 0 95.55 71.213">
  <defs>
    <style>
      .a, .b {
        fill: none;
      }

      .a, .c {
        stroke: #727272;
        stroke-linejoin: round;
      }

      .a, .b, .c {
        stroke-linecap: round;
        stroke-width: 3.5px;
      }

      .b {
        stroke: #00a26a;
        stroke-miterlimit: 10;
      }

      .c {
        fill: #727272;
      }
    </style>
  </defs>
  <g>
    <g>
      <line class="a" x1="1.75" y1="12.5" x2="76.4" y2="12.5"/>
      <line class="a" x1="1.75" y1="23.694" x2="58.999" y2="23.694"/>
      <line class="a" x1="47.212" y1="32.201" x2="52.885" y2="32.201"/>
      <path class="b" d="M59,52.81H5.375A3.635,3.635,0,0,1,1.75,49.185V5.375A3.635,3.635,0,0,1,5.375,1.75h67.4A3.636,3.636,0,0,1,76.4,5.375V27.91"/>
    </g>
    <g>
      <path class="c" d="M76.4,69.463,62.017,58.668A7.554,7.554,0,0,1,59,52.628V20.143a2.646,2.646,0,0,1,4.234-2.116L76.4,27.91Z"/>
      <path class="a" d="M76.4,69.463,90.782,58.668a7.554,7.554,0,0,0,3.018-6.04V20.143a2.646,2.646,0,0,0-4.234-2.116L76.4,27.91Z"/>
    </g>
  </g>
</svg>
