<?xml version="1.0" encoding="utf-8"?>
<!-- Generator: Adobe Illustrator 24.3.0, SVG Export Plug-In . SVG Version: 6.00 Build 0)  -->
<svg version="1.1" id="レイヤー_1" xmlns="http://www.w3.org/2000/svg" xmlns:xlink="http://www.w3.org/1999/xlink" x="0px"
	 y="0px" viewBox="0 0 65 45.6" style="enable-background:new 0 0 65 45.6;" xml:space="preserve">
<style type="text/css">
	.st0{fill:none;stroke:#00A26A;stroke-width:3.5;stroke-linecap:round;stroke-miterlimit:10;}
	.st1{fill:none;stroke:#00A26A;stroke-width:1.5;stroke-miterlimit:10;}
	.st2{fill:none;stroke:#727272;stroke-width:3;stroke-linecap:round;stroke-linejoin:round;}
	.st3{fill:#727272;}
</style>
<g>
	<g>
		<path class="st0" d="M59.7,43.8H5.2c-1.9,0-3.5-1.6-3.5-3.5V5.2c0-1.9,1.6-3.5,3.5-3.5h54.5c1.9,0,3.5,1.6,3.5,3.5v35.1
			C63.2,42.2,61.7,43.8,59.7,43.8z"/>
	</g>
	<g>
		<path class="st1" d="M53.9,25.5H43.5c-1.6,0-2.8-1.3-2.8-2.8V12.2c0-1.6,1.3-2.8,2.8-2.8h10.5c1.6,0,2.8,1.3,2.8,2.8v10.5
			C56.8,24.2,55.5,25.5,53.9,25.5z"/>
		<g>
			<line class="st1" x1="45.5" y1="9.4" x2="45.5" y2="25.5"/>
			<g>
				<line class="st1" x1="40.6" y1="14" x2="45.5" y2="14"/>
				<line class="st1" x1="40.6" y1="17.4" x2="45.5" y2="17.4"/>
				<line class="st1" x1="40.6" y1="20.9" x2="45.5" y2="20.9"/>
			</g>
			<g>
				<polyline class="st1" points="56.8,14 51.9,14 51.9,25.5 				"/>
				<line class="st1" x1="51.9" y1="17.4" x2="56.8" y2="17.4"/>
				<line class="st1" x1="51.9" y1="20.9" x2="56.8" y2="20.9"/>
			</g>
		</g>
	</g>
	<g>
		<line class="st2" x1="30.4" y1="32.9" x2="30.4" y2="34.2"/>
		<line class="st2" x1="23.9" y1="32.9" x2="23.9" y2="34.2"/>
		<line class="st2" x1="34.7" y1="32.9" x2="34.7" y2="34.2"/>
		<line class="st2" x1="38.9" y1="32.9" x2="38.9" y2="34.2"/>
		<line class="st2" x1="9.1" y1="32.9" x2="9.1" y2="34.2"/>
		<line class="st2" x1="13.4" y1="32.9" x2="13.4" y2="34.2"/>
		<line class="st2" x1="17.6" y1="32.9" x2="17.6" y2="34.2"/>
		<line class="st2" x1="43.2" y1="32.9" x2="43.2" y2="34.2"/>
		<line class="st2" x1="47.4" y1="32.9" x2="47.4" y2="34.2"/>
		<line class="st2" x1="51.7" y1="32.9" x2="51.7" y2="34.2"/>
		<line class="st2" x1="55.9" y1="32.9" x2="55.9" y2="34.2"/>
	</g>
	<polygon class="st3" points="14,11.6 7.4,9.1 14,6.6 	"/>
</g>
</svg>
