<svg xmlns="http://www.w3.org/2000/svg" viewBox="0 0 91.637 67.607">
  <defs>
    <style>
      .a, .b, .c {
        fill: none;
        stroke-linecap: round;
        stroke-width: 3.5px;
      }

      .a {
        stroke: #727272;
      }

      .a, .c {
        stroke-linejoin: round;
      }

      .b, .c {
        stroke: #00a26a;
      }

      .b {
        stroke-miterlimit: 10;
      }
    </style>
  </defs>
  <g>
    <line class="a" x1="1.75" y1="10.604" x2="63.236" y2="10.604"/>
    <line class="a" x1="1.75" y1="19.824" x2="63.236" y2="19.824"/>
    <line class="a" x1="39.195" y1="26.831" x2="43.868" y2="26.831"/>
    <line class="a" x1="50.289" y1="26.831" x2="54.962" y2="26.831"/>
    <path class="b" d="M36.557,43.806H5.363A3.624,3.624,0,0,1,1.75,40.193V5.363A3.624,3.624,0,0,1,5.363,1.75h54.26a3.624,3.624,0,0,1,3.613,3.613V32.8"/>
    <rect class="a" x="36.557" y="32.803" width="42.889" height="22.918"/>
    <polyline class="a" points="84.652 37.78 84.652 60.698 41.763 60.698"/>
    <polyline class="a" points="89.887 42.939 89.887 65.857 46.998 65.857"/>
    <circle class="c" cx="58.001" cy="44.262" r="6.466"/>
  </g>
</svg>
